<?xml version="1.0" encoding="utf-8"?>
<!-- Generator: Adobe Illustrator 16.0.0, SVG Export Plug-In . SVG Version: 6.00 Build 0)  -->
<!DOCTYPE svg PUBLIC "-//W3C//DTD SVG 1.1//EN" "http://www.w3.org/Graphics/SVG/1.1/DTD/svg11.dtd">
<svg version="1.1" id="Layer_1" xmlns="http://www.w3.org/2000/svg" xmlns:xlink="http://www.w3.org/1999/xlink" x="0px" y="0px"
	 width="42.5px" height="44.5px" viewBox="1.5 0 42.5 44.5" enable-background="new 1.5 0 42.5 44.5" xml:space="preserve">
<g>
	<g display="none">
		<path display="inline" fill="#C6A16E" d="M92.82,63.443h0.49l-2.109,2.354c-1.766,1.961-3.761,3.734-5.984,5.321
			c-2.225,1.586-4.611,2.942-7.162,4.069c-2.55,1.131-5.175,1.996-7.873,2.601c-2.698,0.606-5.404,0.909-8.118,0.909
			c-3.728,0-7.146-0.572-10.251-1.719c-3.106-1.146-5.813-2.754-8.118-4.83c-2.305-2.076-4.088-4.529-5.347-7.358
			c-1.258-2.827-1.888-5.927-1.888-9.294c0-3.857,0.769-7.439,2.305-10.743c1.538-3.302,3.695-6.18,6.475-8.633
			c2.779-2.453,6.034-4.365,9.761-5.739c3.728-1.373,7.766-2.06,12.115-2.06c2.289,0,4.537,0.205,6.744,0.613
			c2.208,0.41,4.259,0.974,6.156,1.693c1.896,0.719,3.54,1.562,4.93,2.526c1.389,0.964,2.395,2.003,3.016,3.113l-0.441,0.246
			c-0.589-1.08-1.562-2.085-2.918-3.017c-1.357-0.932-2.968-1.749-4.832-2.453c-1.863-0.703-3.875-1.25-6.033-1.643
			c-2.158-0.393-4.365-0.589-6.622-0.589c-4.284,0-8.258,0.671-11.919,2.011c-3.663,1.341-6.859,3.222-9.59,5.641
			c-2.73,2.421-4.855,5.249-6.376,8.486c-1.52,3.236-2.281,6.754-2.281,10.546c0,3.27,0.622,6.295,1.863,9.074
			c1.243,2.779,2.993,5.184,5.249,7.209c2.256,2.027,4.913,3.605,7.971,4.734c3.057,1.127,6.401,1.69,10.031,1.69
			c2.648,0,5.314-0.294,7.996-0.884c2.681-0.59,5.28-1.432,7.798-2.524c2.518-1.099,4.881-2.413,7.088-3.948
			s4.161-3.255,5.861-5.148L92.82,63.443z M57.994,73.352c1.472,0,3.14-0.276,5.003-0.834c1.864-0.558,3.785-1.391,5.764-2.502
			c1.978-1.109,3.833-2.484,5.567-4.119c1.406-1.209,2.935-2.658,4.586-4.342s3.36-3.475,5.126-5.371
			c1.766-1.896,3.507-3.785,5.224-5.666c1.716-1.876,3.335-3.627,4.855-5.248c1.521-1.62,2.853-2.982,3.998-4.096
			c1.536-1.504,2.935-2.656,4.193-3.458c1.259-0.801,2.297-1.201,3.115-1.201c0.981,0,1.472,0.588,1.472,1.765
			c0,1.44-0.458,3.026-1.373,4.758c-0.917,1.734-2.191,3.524-3.827,5.372c-1.635,1.848-3.531,3.671-5.689,5.47
			c-2.158,1.798-4.497,3.499-7.014,5.101c-2.519,1.604-5.118,3.019-7.799,4.242c-2.682,1.229-5.354,2.19-8.02,2.896
			c-2.666,0.701-5.224,1.054-7.676,1.054c-4.12,0-7.538-0.618-10.251-1.862c-2.715-1.242-4.733-2.918-6.058-5.027
			c-1.324-2.108-1.986-4.438-1.986-6.989c0-2.224,0.515-4.292,1.545-6.205c1.03-1.913,2.484-3.572,4.365-4.978
			c1.88-1.406,4.079-2.501,6.597-3.286c2.518-0.786,5.249-1.177,8.191-1.177c3.171,0,5.722,0.482,7.652,1.447
			c1.929,0.965,3.327,2.199,4.194,3.704c0.866,1.504,1.299,3.074,1.299,4.708c0,1.505-0.4,2.919-1.201,4.245
			c-0.802,1.322-1.905,2.484-3.311,3.48c-1.406,0.998-3.034,1.773-4.88,2.33c-1.848,0.558-3.834,0.834-5.96,0.834
			c-2.583,0-4.659-0.48-6.229-1.445c-1.57-0.965-2.354-2.249-2.354-3.852c0-1.406,0.629-2.675,1.888-3.803s2.976-2.027,5.151-2.698
			c2.174-0.67,4.602-1.005,7.284-1.005c2.354,0,4.807,0.253,7.357,0.761c2.551,0.506,5.035,1.217,7.456,2.133
			c2.42,0.916,4.611,1.971,6.573,3.165c1.961,1.193,3.531,2.461,4.708,3.803l-0.343,0.343c-1.177-1.31-2.731-2.551-4.66-3.728
			c-1.929-1.178-4.079-2.215-6.45-3.115c-2.372-0.899-4.815-1.602-7.333-2.109c-2.518-0.507-4.954-0.761-7.308-0.761
			c-2.583,0-4.922,0.312-7.014,0.932c-2.093,0.622-3.752,1.465-4.979,2.526c-1.227,1.063-1.839,2.249-1.839,3.557
			c0,1.44,0.743,2.601,2.231,3.482s3.441,1.324,5.861,1.324c2.748,0,5.249-0.467,7.505-1.398c2.257-0.932,4.047-2.184,5.371-3.752
			c1.324-1.568,1.986-3.318,1.986-5.25c0-2.91-1.136-5.199-3.409-6.866c-2.273-1.668-5.355-2.501-9.246-2.501
			c-2.878,0-5.542,0.376-7.995,1.128c-2.453,0.752-4.595,1.814-6.426,3.188c-1.832,1.374-3.254,2.984-4.267,4.832
			c-1.014,1.848-1.521,3.852-1.521,6.008c0,2.779,0.719,5.167,2.158,7.162c1.438,1.992,3.491,3.531,6.156,4.611
			c2.665,1.078,5.829,1.617,9.491,1.617c2.813,0,5.771-0.465,8.878-1.397c3.106-0.933,6.188-2.19,9.246-3.776
			c3.057-1.586,5.951-3.367,8.682-5.348c2.73-1.979,5.158-4.027,7.284-6.155c2.125-2.126,3.793-4.202,5.004-6.229
			c1.209-2.027,1.814-3.859,1.814-5.495c0-0.85-0.327-1.275-0.981-1.275c-0.687,0-1.602,0.384-2.747,1.152
			c-1.145,0.769-2.519,1.906-4.12,3.409c-1.667,1.734-3.353,3.753-5.052,6.059c-1.701,2.306-3.45,4.708-5.249,7.209
			c-1.798,2.502-3.678,4.938-5.641,7.31c-1.962,2.371-4.039,4.488-6.229,6.354c-2.191,1.831-4.595,3.303-7.21,4.414
			c-2.617,1.109-5.233,1.668-7.848,1.668c-1.734,0-3.181-0.105-4.341-0.318c-1.161-0.213-2.028-0.547-2.6-1.004
			c-0.573-0.461-0.858-1.031-0.858-1.72c0-0.619,0.302-1.118,0.908-1.495c0.604-0.375,1.365-0.563,2.281-0.563
			c2.288,0,4.479,0.385,6.573,1.15c2.092,0.771,4.152,1.75,6.18,2.943c2.027,1.191,4.054,2.46,6.082,3.803
			c2.027,1.342,4.104,2.605,6.229,3.801c2.125,1.193,4.341,2.176,6.646,2.942c2.306,0.771,4.75,1.151,7.333,1.151
			c2.714,0,4.823-0.434,6.327-1.299c1.504-0.869,2.257-2.07,2.257-3.604c0-0.815-0.312-1.687-0.933-2.601l0.442-0.246
			c0.719,1.146,1.079,2.19,1.079,3.141c0,1.831-0.908,3.294-2.723,4.393c-1.815,1.096-4.275,1.641-7.382,1.641
			c-1.537,0-3.024-0.153-4.463-0.465c-1.439-0.312-2.968-0.842-4.586-1.594c-1.619-0.754-3.458-1.781-5.518-3.092
			c-2.06-1.311-4.497-2.977-7.309-5.002c-2.911-2.127-5.788-3.761-8.633-4.904c-2.845-1.145-5.363-1.699-7.554-1.668
			c-0.818,0-1.48,0.131-1.986,0.393c-0.507,0.262-0.76,0.621-0.76,1.08c0,0.556,0.359,1.014,1.079,1.373
			C55.819,73.171,56.784,73.352,57.994,73.352z"/>
	</g>
</g>
<g>
	<path fill="#C6A16E" d="M8.594,10.278c0.835-0.905,2.645,0.487,2.645,0.487c-1.184-2.228-2.437-3.063-2.437-3.063
		c-8.073,9.885-2.645,17.61-2.645,17.61C3.513,15.985,8.594,10.278,8.594,10.278z"/>
	<path fill="#C6A16E" d="M13.466,35.474c0,0-2.923,1.114-4.107-1.601c0,0-0.905,2.646,1.879,3.549c0,0,2.785-0.278,2.994,1.88
		c0,0,0.558,3.341,2.019,4.037c0,0,1.74-1.463-0.626-4.315C15.624,39.025,13.396,37.355,13.466,35.474z"/>
	<path fill="#C6A16E" d="M32.191,32.551c0,0-5.075-4.3-12.321-2.019c0,0,12.773-11.344-2.418-24.708c0,0,7.708,15.729-1.339,26.588
		c0,0,7.795-2.714,11.484,0.488c0,0,4.524,4.037,7.518,4.454c0,0-12.18,4.664-16.148,0.835c0,0-3.133-2.784-4.316-4.803
		c0,0-2.924-0.312-4.606-2.512c-2.587-3.904,1.196-10.295,1.196-10.295c3.77-6.04,4.561-10.503,4.693-12.667
		c0.001-0.159-0.001-0.351-0.01-0.545c0-0.064-0.001-0.128-0.002-0.19c0-0.043,0-0.065,0-0.065l0,0
		c-0.029-1.172-0.254-2.372-0.819-3.454c-0.851-1.735-2.057-2.498-2.057-2.498c0.042,0.073,0.081,0.147,0.119,0.222l-0.119-0.222
		c1.594,4.386-2.5,12.215-2.5,12.215c-2.352,4.104-3.165,7.952-3.438,10.407c-0.124,0.86-0.18,1.782-0.121,2.709
		c0,0.004,0.001,0.005,0.001,0.005l0,0c0.135,2.08,0.866,4.192,2.792,5.777c0,0,1.878,1.531,4.455,2.019c0,0,1.183,6.82,8.283,7.377
		c0,0,7.517,0.487,18.862-3.897C41.377,37.771,38.038,37.423,32.191,32.551z"/>
</g>
</svg>
