<?xml version="1.0" encoding="utf-8"?>
<!-- Generator: Adobe Illustrator 16.0.0, SVG Export Plug-In . SVG Version: 6.00 Build 0)  -->
<!DOCTYPE svg PUBLIC "-//W3C//DTD SVG 1.1//EN" "http://www.w3.org/Graphics/SVG/1.1/DTD/svg11.dtd">
<svg version="1.1" id="Layer_1" xmlns="http://www.w3.org/2000/svg" xmlns:xlink="http://www.w3.org/1999/xlink" x="0px" y="0px"
	 width="230px" height="100px" viewBox="0 0 230 100" enable-background="new 0 0 230 100" xml:space="preserve">
<g>
	<g>
		<linearGradient id="SVGID_1_" gradientUnits="userSpaceOnUse" x1="81.7949" y1="13.9473" x2="87.3628" y2="13.9473">
			<stop  offset="0" style="stop-color:#FEE35F"/>
			<stop  offset="0" style="stop-color:#DDA027"/>
			<stop  offset="0.3198" style="stop-color:#CE9A2B"/>
			<stop  offset="0.6802" style="stop-color:#FEF48E"/>
			<stop  offset="1" style="stop-color:#FFD046"/>
		</linearGradient>
		<path fill="url(#SVGID_1_)" d="M85.218,8.896c0.677-0.734,2.145,0.395,2.145,0.395c-0.96-1.806-1.976-2.483-1.976-2.483
			c-6.546,8.015-2.145,14.279-2.145,14.279C81.098,13.524,85.218,8.896,85.218,8.896z"/>
		<linearGradient id="SVGID_2_" gradientUnits="userSpaceOnUse" x1="85.7251" y1="31.8662" x2="91.9263" y2="31.8662">
			<stop  offset="0" style="stop-color:#FEE35F"/>
			<stop  offset="0" style="stop-color:#DDA027"/>
			<stop  offset="0.3198" style="stop-color:#CE9A2B"/>
			<stop  offset="0.6802" style="stop-color:#FEF48E"/>
			<stop  offset="1" style="stop-color:#FFD046"/>
		</linearGradient>
		<path fill="url(#SVGID_2_)" d="M89.168,29.326c0,0-2.37,0.903-3.33-1.298c0,0-0.734,2.145,1.524,2.878
			c0,0,2.258-0.226,2.427,1.524c0,0,0.452,2.709,1.637,3.273c0,0,1.411-1.186-0.508-3.499
			C90.918,32.205,89.112,30.851,89.168,29.326z"/>
		<linearGradient id="SVGID_3_" gradientUnits="userSpaceOnUse" x1="83.894" y1="17.9326" x2="111.8003" y2="17.9326">
			<stop  offset="0" style="stop-color:#FEE35F"/>
			<stop  offset="0" style="stop-color:#DDA027"/>
			<stop  offset="0.3198" style="stop-color:#CE9A2B"/>
			<stop  offset="0.6802" style="stop-color:#FEF48E"/>
			<stop  offset="1" style="stop-color:#FFD046"/>
		</linearGradient>
		<path fill="url(#SVGID_3_)" d="M104.351,26.956c0,0-4.115-3.487-9.99-1.637c0,0,10.357-9.198-1.961-20.034
			c0,0,6.25,12.754-1.086,21.559c0,0,6.321-2.201,9.312,0.396c0,0,3.668,3.273,6.095,3.611c0,0-9.876,3.782-13.093,0.678
			c0,0-2.54-2.258-3.5-3.895c0,0-2.371-0.253-3.735-2.037c-2.098-3.166,0.97-8.348,0.97-8.348c3.056-4.897,3.698-8.516,3.805-10.271
			c0.001-0.129-0.001-0.284-0.008-0.442c0-0.052-0.001-0.104-0.002-0.154c0-0.035,0-0.053,0-0.053l0,0
			c-0.023-0.95-0.206-1.923-0.664-2.8c-0.69-1.407-1.668-2.025-1.668-2.025c0.034,0.059,0.066,0.119,0.097,0.18l-0.097-0.18
			c1.293,3.556-2.027,9.904-2.027,9.904c-1.907,3.328-2.566,6.448-2.788,8.438c-0.1,0.698-0.146,1.445-0.098,2.197
			c0,0.003,0.001,0.004,0.001,0.004l0,0c0.11,1.686,0.702,3.399,2.264,4.684c0,0,1.523,1.241,3.612,1.637
			c0,0,0.959,5.53,6.716,5.982c0,0,6.095,0.395,15.294-3.16C111.8,31.189,109.092,30.907,104.351,26.956z"/>
	</g>
	<g>
		<linearGradient id="SVGID_4_" gradientUnits="userSpaceOnUse" x1="36.4614" y1="57.5068" x2="106.8975" y2="57.5068">
			<stop  offset="0" style="stop-color:#FEE35F"/>
			<stop  offset="0" style="stop-color:#DDA027"/>
			<stop  offset="0.3198" style="stop-color:#CE9A2B"/>
			<stop  offset="0.6802" style="stop-color:#FEF48E"/>
			<stop  offset="1" style="stop-color:#FFD046"/>
		</linearGradient>
		<path fill="url(#SVGID_4_)" d="M92.82,63.443h0.49l-2.109,2.354c-1.766,1.961-3.761,3.735-5.984,5.321
			c-2.225,1.586-4.611,2.943-7.162,4.07c-2.55,1.13-5.175,1.995-7.873,2.6c-2.698,0.606-5.404,0.909-8.118,0.909
			c-3.728,0-7.146-0.572-10.251-1.718c-3.106-1.145-5.813-2.754-8.118-4.83c-2.305-2.077-4.088-4.53-5.347-7.359
			c-1.258-2.827-1.888-5.927-1.888-9.294c0-3.858,0.769-7.439,2.305-10.743c1.538-3.302,3.695-6.18,6.475-8.633
			c2.779-2.453,6.034-4.365,9.761-5.739c3.728-1.373,7.766-2.06,12.115-2.06c2.289,0,4.537,0.205,6.744,0.613
			c2.208,0.41,4.259,0.974,6.156,1.693c1.896,0.719,3.54,1.562,4.93,2.526c1.389,0.964,2.395,2.003,3.016,3.113l-0.441,0.246
			c-0.589-1.08-1.562-2.085-2.918-3.017c-1.357-0.932-2.968-1.749-4.832-2.453c-1.863-0.703-3.875-1.25-6.033-1.643
			s-4.365-0.589-6.622-0.589c-4.284,0-8.258,0.671-11.919,2.011c-3.663,1.341-6.859,3.222-9.59,5.641
			c-2.73,2.421-4.855,5.249-6.376,8.486c-1.52,3.236-2.281,6.754-2.281,10.546c0,3.27,0.622,6.295,1.863,9.074
			c1.243,2.779,2.993,5.184,5.249,7.21c2.256,2.027,4.913,3.606,7.971,4.733c3.057,1.128,6.401,1.692,10.031,1.692
			c2.648,0,5.314-0.294,7.996-0.883c2.681-0.589,5.28-1.431,7.798-2.525c2.518-1.098,4.881-2.413,7.088-3.949
			c2.207-1.535,4.161-3.254,5.861-5.149L92.82,63.443z M57.994,73.352c1.472,0,3.14-0.278,5.003-0.834
			c1.864-0.558,3.785-1.391,5.764-2.502c1.978-1.11,3.833-2.484,5.567-4.12c1.406-1.209,2.935-2.657,4.586-4.342
			c1.651-1.683,3.36-3.474,5.126-5.371c1.766-1.896,3.507-3.784,5.224-5.665c1.716-1.878,3.335-3.629,4.855-5.248
			c1.521-1.62,2.853-2.982,3.998-4.096c1.536-1.504,2.935-2.656,4.193-3.458c1.259-0.801,2.297-1.201,3.115-1.201
			c0.981,0,1.472,0.588,1.472,1.765c0,1.44-0.458,3.026-1.373,4.758c-0.917,1.734-2.191,3.524-3.827,5.372
			c-1.635,1.848-3.531,3.671-5.689,5.47c-2.158,1.798-4.497,3.499-7.014,5.101c-2.519,1.602-5.118,3.017-7.799,4.242
			c-2.682,1.228-5.354,2.19-8.02,2.895c-2.666,0.702-5.224,1.054-7.676,1.054c-4.12,0-7.538-0.619-10.251-1.863
			c-2.715-1.242-4.733-2.919-6.058-5.027c-1.324-2.109-1.986-4.439-1.986-6.99c0-2.223,0.515-4.292,1.545-6.205
			c1.03-1.913,2.484-3.572,4.365-4.978c1.88-1.406,4.079-2.501,6.597-3.286c2.518-0.786,5.249-1.177,8.191-1.177
			c3.171,0,5.722,0.482,7.652,1.447c1.929,0.965,3.327,2.199,4.194,3.704c0.866,1.504,1.299,3.074,1.299,4.708
			c0,1.505-0.4,2.919-1.201,4.245c-0.802,1.322-1.905,2.484-3.311,3.481c-1.406,0.998-3.034,1.774-4.88,2.33
			c-1.848,0.557-3.834,0.834-5.96,0.834c-2.583,0-4.659-0.481-6.229-1.446s-2.354-2.249-2.354-3.851
			c0-1.406,0.629-2.674,1.888-3.802c1.259-1.128,2.976-2.027,5.151-2.698c2.174-0.67,4.602-1.005,7.284-1.005
			c2.354,0,4.807,0.253,7.357,0.761c2.551,0.506,5.035,1.217,7.456,2.133c2.42,0.916,4.611,1.971,6.573,3.164
			c1.961,1.193,3.531,2.461,4.708,3.802l-0.343,0.343c-1.177-1.309-2.731-2.551-4.66-3.728c-1.929-1.178-4.079-2.215-6.45-3.115
			c-2.372-0.899-4.815-1.602-7.333-2.109s-4.954-0.761-7.308-0.761c-2.583,0-4.922,0.312-7.014,0.932
			c-2.093,0.622-3.752,1.465-4.979,2.526c-1.227,1.063-1.839,2.249-1.839,3.557c0,1.44,0.743,2.6,2.231,3.482
			c1.488,0.883,3.441,1.325,5.861,1.325c2.748,0,5.249-0.468,7.505-1.399c2.257-0.932,4.047-2.183,5.371-3.752
			c1.324-1.568,1.986-3.318,1.986-5.25c0-2.91-1.136-5.199-3.409-6.866c-2.273-1.668-5.355-2.501-9.246-2.501
			c-2.878,0-5.542,0.376-7.995,1.128c-2.453,0.752-4.595,1.814-6.426,3.188c-1.832,1.374-3.254,2.984-4.267,4.832
			c-1.014,1.848-1.521,3.851-1.521,6.008c0,2.78,0.719,5.167,2.158,7.162c1.438,1.993,3.491,3.531,6.156,4.611
			c2.665,1.078,5.829,1.618,9.491,1.618c2.813,0,5.771-0.466,8.878-1.398c3.106-0.932,6.188-2.19,9.246-3.777
			c3.057-1.585,5.951-3.367,8.682-5.347c2.73-1.978,5.158-4.028,7.284-6.155c2.125-2.126,3.793-4.202,5.004-6.229
			c1.209-2.027,1.814-3.859,1.814-5.495c0-0.85-0.327-1.275-0.981-1.275c-0.687,0-1.602,0.384-2.747,1.152
			c-1.145,0.769-2.519,1.906-4.12,3.409c-1.667,1.734-3.353,3.753-5.052,6.059c-1.701,2.306-3.45,4.708-5.249,7.209
			c-1.798,2.502-3.678,4.939-5.641,7.31c-1.962,2.371-4.039,4.488-6.229,6.352c-2.191,1.831-4.595,3.302-7.21,4.414
			c-2.617,1.11-5.233,1.668-7.848,1.668c-1.734,0-3.181-0.106-4.341-0.319c-1.161-0.212-2.028-0.547-2.6-1.004
			c-0.573-0.46-0.858-1.032-0.858-1.719c0-0.619,0.302-1.118,0.908-1.495c0.604-0.375,1.365-0.564,2.281-0.564
			c2.288,0,4.479,0.385,6.573,1.152c2.092,0.77,4.152,1.75,6.18,2.943c2.027,1.193,4.054,2.46,6.082,3.803
			c2.027,1.34,4.104,2.606,6.229,3.8c2.125,1.193,4.341,2.175,6.646,2.943c2.306,0.77,4.75,1.153,7.333,1.153
			c2.714,0,4.823-0.434,6.327-1.3c1.504-0.868,2.257-2.069,2.257-3.605c0-0.816-0.312-1.685-0.933-2.6l0.442-0.245
			c0.719,1.144,1.079,2.19,1.079,3.139c0,1.831-0.908,3.294-2.723,4.391c-1.815,1.096-4.275,1.642-7.382,1.642
			c-1.537,0-3.024-0.154-4.463-0.465c-1.439-0.311-2.968-0.843-4.586-1.594c-1.619-0.753-3.458-1.782-5.518-3.091
			s-4.497-2.976-7.309-5.002c-2.911-2.127-5.788-3.761-8.633-4.905s-5.363-1.699-7.554-1.668c-0.818,0-1.48,0.13-1.986,0.392
			c-0.507,0.262-0.76,0.621-0.76,1.081c0,0.555,0.359,1.013,1.079,1.372C55.819,73.171,56.784,73.352,57.994,73.352z"/>
		<linearGradient id="SVGID_5_" gradientUnits="userSpaceOnUse" x1="90.0723" y1="64.1777" x2="112.979" y2="64.1777">
			<stop  offset="0" style="stop-color:#FEE35F"/>
			<stop  offset="0" style="stop-color:#DDA027"/>
			<stop  offset="0.3198" style="stop-color:#CE9A2B"/>
			<stop  offset="0.6802" style="stop-color:#FEF48E"/>
			<stop  offset="1" style="stop-color:#FFD046"/>
		</linearGradient>
		<path fill="url(#SVGID_5_)" d="M91.691,72.075c-1.079,0-1.619-0.834-1.619-2.502c0-1.11,0.328-2.288,0.981-3.53
			c0.654-1.242,1.537-2.445,2.648-3.606c1.112-1.159,2.354-2.215,3.728-3.163c1.373-0.949,2.787-1.7,4.243-2.256
			c1.454-0.556,2.836-0.835,4.144-0.835c1.111,0,1.667,0.426,1.667,1.276c0,0.784-0.507,1.791-1.52,3.017
			c-1.014,1.226-2.29,2.642-3.826,4.242c-1.21,1.244-2.486,2.429-3.826,3.556c-1.341,1.13-2.592,2.044-3.752,2.747
			C93.399,71.725,92.443,72.075,91.691,72.075z M91.74,71.732c0.622,0,1.463-0.311,2.526-0.932s2.257-1.48,3.581-2.576
			s2.673-2.346,4.047-3.752c1.537-1.603,2.778-2.982,3.728-4.144c0.948-1.161,1.422-2.103,1.422-2.821
			c0-0.556-0.36-0.834-1.079-0.834c-0.655,0-1.48,0.262-2.477,0.785c-0.998,0.522-2.061,1.219-3.189,2.085
			c-1.128,0.867-2.249,1.822-3.359,2.869c-1.112,1.046-2.126,2.108-3.042,3.189c-0.916,1.078-1.65,2.082-2.207,3.015
			c-0.555,0.933-0.833,1.709-0.833,2.331C90.857,71.471,91.151,71.732,91.74,71.732z M111.655,63.443l-0.441,0.489
			c-1.341,1.538-2.706,2.935-4.096,4.194c-1.391,1.259-2.666,2.249-3.826,2.968c-1.161,0.719-2.084,1.078-2.771,1.078
			c-0.361,0-0.679-0.14-0.957-0.416c-0.278-0.277-0.417-0.63-0.417-1.054c0-1.112,0.605-2.6,1.814-4.465
			c1.21-1.863,2.895-3.906,5.053-6.131h0.245l2.943-3.238h3.777c-0.589,0.328-1.194,0.736-1.814,1.228
			c-0.622,0.489-1.21,1.015-1.766,1.57c-2.421,2.42-4.325,4.356-5.714,5.812c-1.39,1.455-2.379,2.591-2.968,3.408
			c-0.588,0.818-0.882,1.489-0.882,2.012c0,0.653,0.261,0.981,0.785,0.981c0.589,0,1.406-0.335,2.453-1.006
			c1.046-0.669,2.232-1.594,3.556-2.771c1.324-1.178,2.657-2.519,3.998-4.023l0.54-0.637H111.655z"/>
		<linearGradient id="SVGID_6_" gradientUnits="userSpaceOnUse" x1="108.1226" y1="64.1289" x2="142.1143" y2="64.1289">
			<stop  offset="0" style="stop-color:#FEE35F"/>
			<stop  offset="0" style="stop-color:#DDA027"/>
			<stop  offset="0.3198" style="stop-color:#CE9A2B"/>
			<stop  offset="0.6802" style="stop-color:#FEF48E"/>
			<stop  offset="1" style="stop-color:#FFD046"/>
		</linearGradient>
		<path fill="url(#SVGID_6_)" d="M111.654,63.443h-0.49l0.588-0.639c1.831-2.027,3.581-3.652,5.248-4.88
			c1.668-1.227,2.992-1.839,3.974-1.839c0.393,0,0.719,0.131,0.981,0.392c0.262,0.262,0.392,0.605,0.392,1.03
			c0,0.916-0.384,1.946-1.152,3.091c-0.769,1.144-2.085,2.681-3.948,4.61h0.637l-1.274,1.717l-4.316,4.807h-4.169
			c1.538-1.112,3.107-2.387,4.709-3.826c1.602-1.438,3.082-2.877,4.438-4.316c1.357-1.438,2.453-2.729,3.288-3.874
			c0.832-1.145,1.25-1.962,1.25-2.453c0-0.556-0.294-0.834-0.883-0.834c-0.523,0-1.275,0.287-2.257,0.858
			c-0.98,0.572-2.035,1.342-3.163,2.306c-1.128,0.966-2.216,2.035-3.262,3.212L111.654,63.443z M116.608,66.926h-0.54l3.876-4.121
			c1.831-1.994,3.515-3.563,5.051-4.708c1.538-1.145,2.796-1.717,3.777-1.717c0.359,0,0.67,0.122,0.932,0.368
			c0.262,0.245,0.393,0.581,0.393,1.006c0,0.915-0.343,1.93-1.029,3.04c-0.688,1.112-1.897,2.583-3.63,4.415h0.638l-1.275,1.717
			l-4.268,4.807h-3.776c1.471-1.112,2.959-2.38,4.463-3.802c1.504-1.423,2.886-2.836,4.145-4.243
			c1.26-1.404,2.281-2.664,3.066-3.776c0.784-1.11,1.177-1.912,1.177-2.403c0-0.556-0.293-0.834-0.883-0.834
			c-0.523,0-1.234,0.278-2.135,0.834c-0.898,0.557-1.88,1.293-2.942,2.208c-1.063,0.914-2.116,1.944-3.163,3.089L116.608,66.926z
			 M130.441,72.173c-0.491,0-0.917-0.203-1.276-0.612c-0.359-0.408-0.539-0.906-0.539-1.495c0-0.915,0.344-1.857,1.029-2.821
			c0.688-0.964,1.529-1.921,2.525-2.869c0.998-0.947,1.995-1.864,2.993-2.747s1.84-1.685,2.526-2.403
			c0.688-0.72,1.029-1.341,1.029-1.864c0-0.491-0.312-0.735-0.932-0.735c-0.588,0-1.39,0.311-2.403,0.932
			c-1.015,0.621-2.143,1.439-3.383,2.452c-1.245,1.015-2.487,2.125-3.729,3.336c-1.243,1.21-2.403,2.404-3.482,3.581h-0.49
			c1.079-1.21,2.264-2.436,3.556-3.68c1.292-1.242,2.576-2.386,3.851-3.433c1.276-1.047,2.452-1.897,3.531-2.551
			c1.079-0.654,1.963-0.981,2.649-0.981c0.457,0,0.89,0.165,1.299,0.49c0.409,0.328,0.614,0.834,0.614,1.521
			c0,0.916-0.353,1.84-1.056,2.771s-1.561,1.854-2.574,2.771c-1.015,0.915-2.036,1.807-3.067,2.672
			c-1.029,0.868-1.895,1.677-2.598,2.43c-0.704,0.751-1.055,1.421-1.055,2.011c0,0.621,0.343,0.932,1.029,0.932
			c0.653,0,1.578-0.368,2.771-1.104c1.193-0.736,2.485-1.694,3.875-2.87c1.391-1.177,2.705-2.453,3.949-3.826l0.539-0.637h0.49
			l-0.441,0.489c-1.341,1.538-2.739,2.929-4.193,4.171c-1.456,1.242-2.804,2.231-4.046,2.966
			C132.189,71.806,131.192,72.173,130.441,72.173z"/>
		<linearGradient id="SVGID_7_" gradientUnits="userSpaceOnUse" x1="111.8003" y1="77.2256" x2="164.8232" y2="77.2256">
			<stop  offset="0" style="stop-color:#FEE35F"/>
			<stop  offset="0" style="stop-color:#DDA027"/>
			<stop  offset="0.3198" style="stop-color:#CE9A2B"/>
			<stop  offset="0.6802" style="stop-color:#FEF48E"/>
			<stop  offset="1" style="stop-color:#FFD046"/>
		</linearGradient>
		<path fill="url(#SVGID_7_)" d="M118.962,97.826c-2.288,0-4.054-0.424-5.297-1.274c-1.243-0.851-1.865-2.078-1.865-3.679
			c0-1.047,0.327-1.946,0.981-2.697c0.654-0.753,1.488-1.244,2.501-1.472v0.392c-0.85,0.229-1.569,0.679-2.158,1.349
			c-0.588,0.67-0.883,1.48-0.883,2.429c0,1.405,0.556,2.509,1.668,3.311c1.112,0.801,2.6,1.202,4.463,1.202
			c2.388,0,4.856-0.662,7.407-1.987c2.55-1.323,5.101-3.105,7.651-5.346c2.551-2.239,5.053-4.767,7.505-7.579
			c2.453-2.813,4.799-5.722,7.04-8.73c2.239-3.008,4.324-5.918,6.252-8.73l0.147,0.736h-1.274l5.347-5.495l2.794-3.385h3.581
			c-1.112,0.785-2.305,1.71-3.581,2.772c-1.274,1.063-2.517,2.167-3.727,3.311c-1.21,1.146-2.305,2.257-3.287,3.335
			c-1.666,2.878-3.481,5.805-5.444,8.781c-1.962,2.975-4.07,5.82-6.327,8.535c-2.256,2.712-4.643,5.142-7.161,7.283
			c-2.518,2.141-5.142,3.834-7.872,5.076S121.873,97.826,118.962,97.826z M143.732,72.173c-1.078,0-1.619-0.587-1.619-1.766
			c0-1.046,0.319-2.042,0.957-2.99c0.638-0.949,1.43-1.865,2.378-2.748c0.949-0.883,1.905-1.724,2.87-2.525
			c0.965-0.801,1.766-1.57,2.404-2.307c0.638-0.735,0.955-1.462,0.955-2.183c0-0.489-0.244-0.736-0.735-0.736
			s-1.202,0.271-2.133,0.812c-0.933,0.538-1.939,1.25-3.018,2.133s-2.109,1.863-3.09,2.942l-0.589,0.639h-0.489l0.587-0.639
			c1.699-1.896,3.345-3.399,4.93-4.512c1.585-1.111,2.869-1.668,3.85-1.668c0.394,0,0.812,0.172,1.253,0.515
			c0.441,0.344,0.663,0.908,0.663,1.693c0,0.948-0.344,1.88-1.031,2.795c-0.687,0.916-1.529,1.791-2.526,2.623
			c-0.998,0.834-2.004,1.645-3.018,2.43c-1.013,0.785-1.863,1.527-2.55,2.231c-0.686,0.703-1.029,1.381-1.029,2.036
			c0,0.327,0.114,0.563,0.344,0.711c0.228,0.146,0.457,0.221,0.686,0.221c0.589,0,1.405-0.286,2.452-0.859
			c1.047-0.571,2.19-1.332,3.434-2.28c1.242-0.947,2.389-1.944,3.435-2.991h0.441c-1.08,1.145-2.257,2.206-3.533,3.188
			c-1.273,0.98-2.477,1.766-3.604,2.353C145.277,71.88,144.386,72.173,143.732,72.173z"/>
		<linearGradient id="SVGID_8_" gradientUnits="userSpaceOnUse" x1="160.3115" y1="64.1777" x2="183.2178" y2="64.1777">
			<stop  offset="0" style="stop-color:#FEE35F"/>
			<stop  offset="0" style="stop-color:#DDA027"/>
			<stop  offset="0.3198" style="stop-color:#CE9A2B"/>
			<stop  offset="0.6802" style="stop-color:#FEF48E"/>
			<stop  offset="1" style="stop-color:#FFD046"/>
		</linearGradient>
		<path fill="url(#SVGID_8_)" d="M161.93,72.075c-1.079,0-1.618-0.834-1.618-2.502c0-1.11,0.328-2.288,0.98-3.53
			c0.655-1.242,1.538-2.445,2.648-3.606c1.112-1.159,2.354-2.215,3.729-3.163c1.374-0.949,2.786-1.7,4.242-2.256
			s2.836-0.835,4.145-0.835c1.112,0,1.668,0.426,1.668,1.276c0,0.784-0.508,1.791-1.521,3.017c-1.015,1.226-2.29,2.642-3.824,4.242
			c-1.213,1.244-2.486,2.429-3.827,3.556c-1.342,1.13-2.592,2.044-3.752,2.747C163.637,71.725,162.683,72.075,161.93,72.075z
			 M161.979,71.732c0.621,0,1.462-0.311,2.526-0.932c1.061-0.621,2.255-1.48,3.579-2.576s2.674-2.346,4.046-3.752
			c1.538-1.603,2.78-2.982,3.729-4.144c0.946-1.161,1.422-2.103,1.422-2.821c0-0.556-0.359-0.834-1.079-0.834
			c-0.655,0-1.479,0.262-2.477,0.785c-0.998,0.522-2.061,1.219-3.189,2.085c-1.128,0.867-2.247,1.822-3.359,2.869
			c-1.112,1.046-2.125,2.108-3.041,3.189c-0.915,1.078-1.65,2.082-2.207,3.015c-0.556,0.933-0.835,1.709-0.835,2.331
			C161.095,71.471,161.391,71.732,161.979,71.732z M181.894,63.443l-0.441,0.489c-1.342,1.538-2.706,2.935-4.097,4.194
			c-1.39,1.259-2.664,2.249-3.824,2.968c-1.162,0.719-2.085,1.078-2.772,1.078c-0.361,0-0.679-0.14-0.956-0.416
			c-0.28-0.277-0.418-0.63-0.418-1.054c0-1.112,0.605-2.6,1.815-4.465c1.211-1.863,2.895-3.906,5.051-6.131h0.246l2.943-3.238h3.777
			c-0.589,0.328-1.194,0.736-1.815,1.228c-0.621,0.489-1.211,1.015-1.766,1.57c-2.421,2.42-4.324,4.356-5.714,5.812
			c-1.391,1.455-2.379,2.591-2.968,3.408c-0.59,0.818-0.883,1.489-0.883,2.012c0,0.653,0.262,0.981,0.784,0.981
			c0.59,0,1.406-0.335,2.453-1.006c1.047-0.669,2.232-1.594,3.557-2.771c1.322-1.178,2.656-2.519,3.997-4.023l0.539-0.637H181.894z"
			/>
		<linearGradient id="SVGID_9_" gradientUnits="userSpaceOnUse" x1="177.4297" y1="61.1865" x2="195.0391" y2="61.1865">
			<stop  offset="0" style="stop-color:#FEE35F"/>
			<stop  offset="0" style="stop-color:#DDA027"/>
			<stop  offset="0.3198" style="stop-color:#CE9A2B"/>
			<stop  offset="0.6802" style="stop-color:#FEF48E"/>
			<stop  offset="1" style="stop-color:#FFD046"/>
		</linearGradient>
		<path fill="url(#SVGID_9_)" d="M194.009,63.933c-1.8,1.996-3.663,3.541-5.593,4.637c-1.929,1.096-3.824,1.643-5.688,1.643
			c-1.406,0-2.585,0.123-3.533,0.367c-0.949,0.246-1.422,0.564-1.422,0.956c0,0.229,0.195,0.345,0.587,0.345
			c1.342,0,2.635-0.36,3.877-1.079s2.37-1.685,3.383-2.895c1.015-1.209,1.815-2.565,2.404-4.07c0.588-1.504,0.883-3.042,0.883-4.611
			c0-0.947,0.074-1.783,0.22-2.502c0.148-0.719,0.46-1.471,0.933-2.256c0.474-0.785,1.219-1.7,2.231-2.746l2.698-1.521
			c-1.177,0.883-2.085,1.611-2.723,2.182c-0.637,0.573-1.088,1.079-1.35,1.52c-0.262,0.442-0.392,0.926-0.392,1.448
			c0,0.523,0.098,1.268,0.294,2.231c0.197,0.965,0.295,1.937,0.295,2.919c0,1.438-0.367,2.854-1.104,4.242
			c-0.734,1.392-1.715,2.643-2.941,3.753c-1.227,1.112-2.585,2.003-4.072,2.674c-1.488,0.669-3,1.004-4.536,1.004
			c-0.687,0-1.03-0.213-1.03-0.638c0-0.455,0.507-0.849,1.52-1.177c1.015-0.325,2.257-0.489,3.729-0.489
			c3.629,0,7.191-1.929,10.692-5.789l0.59-0.637h0.489L194.009,63.933z M181.894,63.443h-0.491l0.589-0.639
			c3.008-3.302,5.437-6.015,7.284-8.143c1.847-2.124,3.065-3.611,3.654-4.462h2.109c-1.309,0.982-2.928,2.445-4.857,4.389
			c-1.929,1.946-4.479,4.667-7.651,8.167L181.894,63.443z"/>
	</g>
	<g>
		<path fill="#010101" d="M146.634,84.892v-5.429h3.72v0.92h-2.624v1.285h2.266v0.916h-2.266v2.308H146.634z"/>
		<path fill="#010101" d="M157.097,84.892h-1.193l-0.473-1.232h-2.169l-0.448,1.232h-1.161l2.114-5.429h1.157L157.097,84.892z
			 M155.08,82.744l-0.75-2.015l-0.73,2.015H155.08z"/>
		<path fill="#010101" d="M158.765,83.126l1.066-0.104c0.063,0.358,0.194,0.621,0.39,0.789c0.196,0.169,0.462,0.25,0.794,0.25
			c0.354,0,0.618-0.072,0.797-0.224c0.18-0.148,0.27-0.322,0.27-0.521c0-0.128-0.038-0.238-0.113-0.33
			c-0.074-0.089-0.206-0.166-0.394-0.232c-0.127-0.047-0.421-0.125-0.876-0.238c-0.589-0.145-1.001-0.324-1.238-0.537
			c-0.333-0.298-0.498-0.662-0.498-1.093c0-0.274,0.077-0.533,0.235-0.774c0.154-0.24,0.38-0.423,0.677-0.55
			c0.294-0.126,0.649-0.188,1.066-0.188c0.682,0,1.195,0.149,1.539,0.448c0.345,0.297,0.525,0.698,0.544,1.194l-1.096,0.048
			c-0.048-0.277-0.149-0.478-0.304-0.6c-0.154-0.123-0.385-0.185-0.695-0.185c-0.316,0-0.565,0.066-0.747,0.197
			c-0.115,0.085-0.174,0.195-0.174,0.337c0,0.128,0.055,0.237,0.163,0.329c0.141,0.117,0.476,0.236,1.007,0.361
			c0.534,0.128,0.929,0.257,1.185,0.393c0.253,0.134,0.455,0.317,0.6,0.552c0.143,0.232,0.215,0.521,0.215,0.864
			c0,0.31-0.086,0.603-0.258,0.872c-0.175,0.271-0.417,0.475-0.733,0.606c-0.317,0.132-0.709,0.196-1.182,0.196
			c-0.687,0-1.214-0.158-1.58-0.474C159.055,84.195,158.835,83.731,158.765,83.126z"/>
		<path fill="#010101" d="M165.468,84.892v-5.429h1.096v2.138h2.146v-2.138h1.099v5.429h-1.099V82.52h-2.146v2.372H165.468z"/>
		<path fill="#010101" d="M172.271,84.892v-5.429h1.096v5.429H172.271z"/>
		<path fill="#010101" d="M175.553,82.212c0-0.554,0.084-1.017,0.246-1.392c0.125-0.277,0.292-0.524,0.505-0.745
			c0.216-0.219,0.448-0.382,0.704-0.489c0.335-0.142,0.727-0.214,1.168-0.214c0.8,0,1.44,0.249,1.92,0.744s0.72,1.187,0.72,2.068
			c0,0.878-0.237,1.563-0.715,2.057c-0.476,0.495-1.114,0.742-1.908,0.742c-0.809,0-1.451-0.244-1.927-0.739
			C175.79,83.753,175.553,83.076,175.553,82.212z M176.68,82.174c0,0.615,0.143,1.08,0.426,1.397
			c0.285,0.317,0.646,0.476,1.082,0.476s0.795-0.155,1.075-0.472c0.28-0.313,0.421-0.786,0.421-1.416
			c0-0.621-0.136-1.086-0.409-1.391c-0.274-0.306-0.637-0.46-1.087-0.46s-0.815,0.155-1.094,0.463
			C176.82,81.082,176.68,81.55,176.68,82.174z"/>
		<path fill="#010101" d="M183.045,84.892v-5.429h1.069l2.221,3.625v-3.625h1.016v5.429h-1.098l-2.188-3.539v3.539H183.045z"/>
		<path fill="#010101" d="M189.597,83.126l1.066-0.104c0.065,0.358,0.194,0.621,0.392,0.789c0.196,0.169,0.462,0.25,0.794,0.25
			c0.352,0,0.618-0.072,0.797-0.224c0.179-0.148,0.268-0.322,0.268-0.521c0-0.128-0.036-0.238-0.111-0.33
			c-0.077-0.089-0.208-0.166-0.396-0.232c-0.127-0.047-0.419-0.125-0.877-0.238c-0.586-0.145-1-0.324-1.235-0.537
			c-0.335-0.298-0.5-0.662-0.5-1.093c0-0.274,0.079-0.533,0.235-0.774c0.156-0.24,0.382-0.423,0.677-0.55
			c0.294-0.126,0.649-0.188,1.068-0.188c0.682,0,1.192,0.149,1.537,0.448c0.344,0.297,0.525,0.698,0.543,1.194l-1.096,0.048
			c-0.048-0.277-0.147-0.478-0.303-0.6c-0.154-0.123-0.386-0.185-0.693-0.185c-0.319,0-0.568,0.066-0.747,0.197
			c-0.117,0.085-0.174,0.195-0.174,0.337c0,0.128,0.054,0.237,0.163,0.329c0.138,0.117,0.473,0.236,1.007,0.361
			c0.532,0.128,0.926,0.257,1.182,0.393c0.256,0.134,0.455,0.317,0.6,0.552c0.146,0.232,0.218,0.521,0.218,0.864
			c0,0.31-0.088,0.603-0.261,0.872c-0.172,0.271-0.416,0.475-0.733,0.606c-0.314,0.132-0.708,0.196-1.182,0.196
			c-0.684,0-1.211-0.158-1.58-0.474C189.889,84.195,189.669,83.731,189.597,83.126z"/>
	</g>
</g>
</svg>
