<?xml version="1.0" encoding="utf-8"?>
<!-- Generator: Adobe Illustrator 16.0.0, SVG Export Plug-In . SVG Version: 6.00 Build 0)  -->
<!DOCTYPE svg PUBLIC "-//W3C//DTD SVG 1.1//EN" "http://www.w3.org/Graphics/SVG/1.1/DTD/svg11.dtd">
<svg version="1.1" id="Layer_1" xmlns="http://www.w3.org/2000/svg" xmlns:xlink="http://www.w3.org/1999/xlink" x="0px" y="0px"
	 width="54.75px" height="33px" viewBox="0 0 54.75 33" enable-background="new 0 0 54.75 33" xml:space="preserve">
<g display="none">
	<g display="inline">
		<g>
			<linearGradient id="SVGID_1_" gradientUnits="userSpaceOnUse" x1="42.9878" y1="16.1733" x2="60.2422" y2="16.1733">
				<stop  offset="0" style="stop-color:#DB9727"/>
				<stop  offset="0" style="stop-color:#DA9A28"/>
				<stop  offset="0.3198" style="stop-color:#FFD027"/>
				<stop  offset="0.6802" style="stop-color:#FAF395"/>
				<stop  offset="1" style="stop-color:#ECBF23"/>
			</linearGradient>
			<path fill="url(#SVGID_1_)" d="M60.242,12.676v-5.13h-5.128c-1.599,0-2.964,1.003-3.498,2.414
				c-0.535-1.411-1.899-2.414-3.499-2.414h-5.13v5.13c0,1.6,1.003,2.964,2.414,3.498c-1.411,0.535-2.414,1.899-2.414,3.498v5.129
				h5.13c1.599,0,2.964-1.002,3.499-2.413c0.534,1.411,1.899,2.413,3.498,2.413h5.128v-5.129c0-1.599-1.001-2.963-2.412-3.498
				C59.241,15.64,60.242,14.275,60.242,12.676z M51.069,17.152v0.256v3.651c0,1.628-1.325,2.951-2.951,2.951h-4.34v-4.339
				c0-1.628,1.323-2.95,2.951-2.95h3.651h0.688V17.152z M51.373,15.931h-0.689l-0.304-0.304h-3.651
				c-1.628,0-2.951-1.325-2.951-2.951v-4.34h4.34c1.626,0,2.951,1.323,2.951,2.95v3.652l0.304,0.304V15.931z M59.452,19.672v4.339
				h-4.338c-1.628,0-2.951-1.323-2.951-2.951v-3.651l-0.304-0.304v-0.256v-0.432h0.687l0.304,0.305h3.651
				C58.129,16.722,59.452,18.044,59.452,19.672z M56.501,15.627H52.85h-0.687v-0.432v-0.257v-3.652c0-1.627,1.323-2.95,2.951-2.95
				h4.338v4.34C59.452,14.302,58.129,15.627,56.501,15.627z"/>
		</g>
		<g>
			<linearGradient id="SVGID_2_" gradientUnits="userSpaceOnUse" x1="51.373" y1="16.6694" x2="52.8501" y2="16.6694">
				<stop  offset="0" style="stop-color:#DB9727"/>
				<stop  offset="0" style="stop-color:#DA9A28"/>
				<stop  offset="0.3198" style="stop-color:#FFD027"/>
				<stop  offset="0.6802" style="stop-color:#FAF395"/>
				<stop  offset="1" style="stop-color:#ECBF23"/>
			</linearGradient>
			<path fill="url(#SVGID_2_)" d="M52.546,16.417l-0.243-0.243l0.243-0.243h-1.173v1.174l0.243-0.244l0.243,0.244l0.304,0.304
				v-0.687h0.687L52.546,16.417z M52.546,16.417l-0.243-0.243l0.243-0.243h-1.118l-0.055,0.056v0.375l0.243,0.244l0.243,0.243v0.256
				l0.304,0.304v-0.687h0.687L52.546,16.417z M52.546,16.417l-0.243-0.243l0.243-0.243h-1.118l-0.055,0.056v0.375l0.243,0.244
				l0.243,0.243v0.256l0.304,0.304v-0.687h0.687L52.546,16.417z"/>
			<linearGradient id="SVGID_3_" gradientUnits="userSpaceOnUse" x1="50.3804" y1="15.6777" x2="51.8589" y2="15.6777">
				<stop  offset="0" style="stop-color:#DB9727"/>
				<stop  offset="0" style="stop-color:#DA9A28"/>
				<stop  offset="0.3198" style="stop-color:#FFD027"/>
				<stop  offset="0.6802" style="stop-color:#FAF395"/>
				<stop  offset="1" style="stop-color:#ECBF23"/>
			</linearGradient>
			<path fill="url(#SVGID_3_)" d="M51.616,15.485l-0.547-0.547v0.688H50.38l0.547,0.547l-0.244,0.243h1.175v-1.175L51.616,15.485z
				 M51.373,16.361l-0.188-0.188l-0.547-0.547H50.38l0.547,0.547l-0.244,0.243h0.744L51.373,16.361z"/>
		</g>
		<g>
			<linearGradient id="SVGID_4_" gradientUnits="userSpaceOnUse" x1="45.4966" y1="4.2114" x2="57.7354" y2="4.2114">
				<stop  offset="0" style="stop-color:#DB9727"/>
				<stop  offset="0" style="stop-color:#DA9A28"/>
				<stop  offset="0.3198" style="stop-color:#FFD027"/>
				<stop  offset="0.6802" style="stop-color:#FAF395"/>
				<stop  offset="1" style="stop-color:#ECBF23"/>
			</linearGradient>
			<path fill="url(#SVGID_4_)" d="M46.956,6.652l4.661-4.657l4.66,4.657c0.264,0.266,0.468,0.569,0.609,0.894h0.85
				c-0.179-0.531-0.479-1.028-0.901-1.45l-5.218-5.219l-5.22,5.219c-0.422,0.422-0.723,0.919-0.899,1.45h0.85
				C46.487,7.222,46.691,6.918,46.956,6.652z"/>
			<linearGradient id="SVGID_5_" gradientUnits="userSpaceOnUse" x1="45.4966" y1="28.1357" x2="57.7354" y2="28.1357">
				<stop  offset="0" style="stop-color:#DB9727"/>
				<stop  offset="0" style="stop-color:#DA9A28"/>
				<stop  offset="0.3198" style="stop-color:#FFD027"/>
				<stop  offset="0.6802" style="stop-color:#FAF395"/>
				<stop  offset="1" style="stop-color:#ECBF23"/>
			</linearGradient>
			<path fill="url(#SVGID_5_)" d="M56.276,25.693l-4.66,4.66l-4.661-4.66c-0.264-0.265-0.469-0.568-0.609-0.893h-0.85
				c0.177,0.531,0.477,1.03,0.899,1.451l5.22,5.219l5.218-5.219c0.424-0.421,0.725-0.92,0.901-1.451h-0.85
				C56.745,25.125,56.541,25.429,56.276,25.693z"/>
			<linearGradient id="SVGID_6_" gradientUnits="userSpaceOnUse" x1="43.7778" y1="16.1733" x2="59.4521" y2="16.1733">
				<stop  offset="0" style="stop-color:#DB9727"/>
				<stop  offset="0" style="stop-color:#DA9A28"/>
				<stop  offset="0.3198" style="stop-color:#FFD027"/>
				<stop  offset="0.6802" style="stop-color:#FAF395"/>
				<stop  offset="1" style="stop-color:#ECBF23"/>
			</linearGradient>
			<path fill="url(#SVGID_6_)" d="M56.963,11.514l-4.66,4.66l0.243,0.243l0.304,0.305l4.113,4.113
				c0.556,0.556,1.298,0.863,2.085,0.863c0.136,0,0.272-0.009,0.404-0.028v0.795c-0.134,0.017-0.27,0.023-0.404,0.023
				c-0.468,0-0.938-0.087-1.382-0.265c0.227,0.571,0.308,1.186,0.242,1.787h-0.798c0.124-0.884-0.155-1.813-0.833-2.49l-4.113-4.112
				l-0.304-0.304l-0.243-0.244l-4.661,4.66c-0.678,0.678-0.957,1.606-0.833,2.49h-0.8c-0.066-0.602,0.015-1.216,0.242-1.787
				c-0.443,0.178-0.912,0.265-1.382,0.265c-0.134,0-0.27-0.007-0.404-0.023V21.67c0.132,0.02,0.269,0.028,0.404,0.028
				c0.789,0,1.529-0.308,2.087-0.863l4.111-4.113l0.304-0.305l0.244-0.243l-0.547-0.547l-4.111-4.113
				c-0.558-0.558-1.298-0.863-2.087-0.863c-0.136,0-0.272,0.009-0.404,0.028V9.883c0.134-0.016,0.271-0.023,0.404-0.023
				c0.47,0,0.939,0.088,1.382,0.265c-0.227-0.57-0.308-1.185-0.242-1.788h0.8c-0.124,0.884,0.155,1.812,0.833,2.491l4.113,4.111
				l0.547,0.547l0.243-0.243l0.304-0.304l4.113-4.111c0.678-0.68,0.957-1.607,0.833-2.491h0.798
				c0.066,0.604-0.015,1.218-0.242,1.788c0.444-0.177,0.914-0.265,1.382-0.265c0.134,0,0.27,0.008,0.404,0.023v0.796
				c-0.132-0.02-0.269-0.028-0.404-0.028C58.261,10.65,57.519,10.956,56.963,11.514z"/>
			<linearGradient id="SVGID_7_" gradientUnits="userSpaceOnUse" x1="36.3193" y1="16.1743" x2="42.9878" y2="16.1743">
				<stop  offset="0" style="stop-color:#DB9727"/>
				<stop  offset="0" style="stop-color:#DA9A28"/>
				<stop  offset="0.3198" style="stop-color:#FFD027"/>
				<stop  offset="0.6802" style="stop-color:#FAF395"/>
				<stop  offset="1" style="stop-color:#ECBF23"/>
			</linearGradient>
			<path fill="url(#SVGID_7_)" d="M36.319,16.174l5.218,5.218c0.421,0.423,0.919,0.724,1.45,0.902v-0.848
				c-0.329-0.146-0.631-0.351-0.893-0.611l-4.658-4.661l4.658-4.66c0.261-0.261,0.563-0.468,0.893-0.611v-0.848
				c-0.531,0.179-1.029,0.478-1.45,0.899L36.319,16.174z"/>
		</g>
	</g>
</g>
<g>
	<g>
		<linearGradient id="SVGID_8_" gradientUnits="userSpaceOnUse" x1="16.7114" y1="4.6484" x2="18.5762" y2="4.6484">
			<stop  offset="0" style="stop-color:#FEE35F"/>
			<stop  offset="0" style="stop-color:#DDA027"/>
			<stop  offset="0.3198" style="stop-color:#CE9A2B"/>
			<stop  offset="0.6802" style="stop-color:#FEF48E"/>
			<stop  offset="1" style="stop-color:#FFD046"/>
		</linearGradient>
		<path fill="url(#SVGID_8_)" d="M17.858,2.957c0.227-0.246,0.718,0.132,0.718,0.132c-0.32-0.605-0.661-0.832-0.661-0.832
			c-2.193,2.685-0.719,4.783-0.719,4.783C16.479,4.507,17.858,2.957,17.858,2.957z"/>
		<linearGradient id="SVGID_9_" gradientUnits="userSpaceOnUse" x1="18.0273" y1="10.6509" x2="20.1055" y2="10.6509">
			<stop  offset="0" style="stop-color:#FEE35F"/>
			<stop  offset="0" style="stop-color:#DDA027"/>
			<stop  offset="0.3198" style="stop-color:#CE9A2B"/>
			<stop  offset="0.6802" style="stop-color:#FEF48E"/>
			<stop  offset="1" style="stop-color:#FFD046"/>
		</linearGradient>
		<path fill="url(#SVGID_9_)" d="M19.182,9.801c0,0-0.794,0.302-1.116-0.436c0,0-0.245,0.719,0.511,0.964
			c0,0,0.757-0.075,0.813,0.511c0,0,0.151,0.907,0.549,1.097c0,0,0.472-0.396-0.171-1.172C19.768,10.765,19.163,10.311,19.182,9.801
			z"/>
		<linearGradient id="SVGID_10_" gradientUnits="userSpaceOnUse" x1="17.415" y1="5.9844" x2="26.7627" y2="5.9844">
			<stop  offset="0" style="stop-color:#FEE35F"/>
			<stop  offset="0" style="stop-color:#DDA027"/>
			<stop  offset="0.3198" style="stop-color:#CE9A2B"/>
			<stop  offset="0.6802" style="stop-color:#FEF48E"/>
			<stop  offset="1" style="stop-color:#FFD046"/>
		</linearGradient>
		<path fill="url(#SVGID_10_)" d="M24.268,9.006c0,0-1.379-1.168-3.347-0.548c0,0,3.469-3.081-0.657-6.712
			c0,0,2.094,4.273-0.363,7.223c0,0,2.117-0.737,3.119,0.132c0,0,1.229,1.097,2.041,1.21c0,0-3.308,1.267-4.386,0.227
			c0,0-0.851-0.756-1.172-1.304c0,0-0.794-0.085-1.251-0.683c-0.703-1.061,0.324-2.796,0.324-2.796
			c1.024-1.642,1.239-2.854,1.275-3.441c0-0.043-0.001-0.095-0.003-0.148c0-0.017,0-0.034-0.001-0.051c0-0.012,0-0.019,0-0.019l0,0
			c-0.008-0.317-0.068-0.644-0.222-0.938c-0.231-0.471-0.559-0.678-0.559-0.678c0.011,0.02,0.021,0.04,0.032,0.06l-0.032-0.06
			c0.433,1.19-0.68,3.316-0.68,3.316c-0.639,1.115-0.859,2.161-0.934,2.827c-0.033,0.234-0.049,0.485-0.033,0.736
			c0,0.001,0,0.001,0,0.001l0,0C17.458,7.926,17.656,8.5,18.18,8.93c0,0,0.511,0.417,1.21,0.55c0,0,0.321,1.853,2.25,2.004
			c0,0,2.041,0.132,5.123-1.06C26.763,10.424,25.855,10.329,24.268,9.006z"/>
	</g>
	<g>
		<linearGradient id="SVGID_11_" gradientUnits="userSpaceOnUse" x1="1.4023" y1="19.3125" x2="24.4746" y2="19.3125">
			<stop  offset="0" style="stop-color:#FEE35F"/>
			<stop  offset="0" style="stop-color:#DDA027"/>
			<stop  offset="0.3198" style="stop-color:#CE9A2B"/>
			<stop  offset="0.6802" style="stop-color:#FEF48E"/>
			<stop  offset="1" style="stop-color:#FFD046"/>
		</linearGradient>
		<path fill="url(#SVGID_11_)" d="M19.864,21.258h0.16l-0.69,0.77c-0.579,0.645-1.232,1.225-1.961,1.744s-1.511,0.965-2.346,1.334
			s-1.695,0.652-2.579,0.852c-0.883,0.197-1.77,0.297-2.659,0.297c-1.221,0-2.34-0.188-3.357-0.563s-1.904-0.902-2.659-1.582
			c-0.756-0.68-1.34-1.482-1.752-2.41s-0.618-1.941-0.618-3.045c0-1.264,0.252-2.437,0.755-3.519
			c0.504-1.082,1.21-2.024,2.121-2.828c0.91-0.804,1.977-1.43,3.197-1.88c1.222-0.449,2.544-0.675,3.969-0.675
			c0.75,0,1.486,0.067,2.209,0.201c0.724,0.134,1.396,0.318,2.017,0.555c0.621,0.235,1.159,0.512,1.615,0.827
			c0.455,0.315,0.785,0.655,0.987,1.021l-0.145,0.08c-0.191-0.354-0.511-0.683-0.956-0.988c-0.444-0.306-0.972-0.573-1.582-0.804
			s-1.27-0.41-1.977-0.538s-1.43-0.192-2.169-0.192c-1.403,0-2.705,0.219-3.904,0.658c-1.2,0.44-2.247,1.056-3.142,1.848
			c-0.895,0.793-1.591,1.72-2.089,2.78c-0.498,1.06-0.747,2.212-0.747,3.454c0,1.07,0.204,2.063,0.61,2.973
			c0.407,0.91,0.98,1.697,1.72,2.361s1.609,1.182,2.611,1.551c1.001,0.369,2.097,0.555,3.285,0.555c0.868,0,1.741-0.096,2.619-0.289
			s1.729-0.469,2.555-0.828s1.599-0.791,2.322-1.293c0.723-0.504,1.363-1.066,1.92-1.688L19.864,21.258z M8.456,24.502
			c0.481,0,1.028-0.092,1.639-0.271c0.61-0.184,1.24-0.455,1.888-0.82c0.648-0.363,1.256-0.814,1.824-1.35
			c0.46-0.396,0.961-0.869,1.502-1.422c0.541-0.551,1.101-1.139,1.679-1.76c0.579-0.621,1.149-1.24,1.711-1.855
			c0.563-0.615,1.094-1.188,1.592-1.719s0.934-0.978,1.31-1.342c0.503-0.493,0.961-0.87,1.373-1.133s0.752-0.394,1.021-0.394
			c0.321,0,0.481,0.192,0.481,0.578c0,0.472-0.149,0.991-0.449,1.559c-0.301,0.567-0.718,1.154-1.253,1.759
			c-0.536,0.606-1.157,1.203-1.864,1.791c-0.707,0.59-1.473,1.148-2.298,1.672c-0.824,0.525-1.677,0.988-2.555,1.389
			c-0.878,0.402-1.754,0.719-2.627,0.949s-1.711,0.346-2.515,0.346c-1.35,0-2.469-0.203-3.358-0.611
			c-0.889-0.406-1.55-0.955-1.984-1.646c-0.434-0.689-0.65-1.453-0.65-2.289c0-0.729,0.169-1.406,0.506-2.033
			c0.338-0.626,0.814-1.17,1.431-1.631c0.615-0.46,1.336-0.818,2.16-1.076c0.825-0.257,1.72-0.386,2.684-0.386
			c1.039,0,1.875,0.158,2.507,0.475c0.632,0.315,1.09,0.72,1.374,1.212c0.283,0.493,0.426,1.008,0.426,1.543
			c0,0.493-0.132,0.957-0.394,1.391c-0.263,0.434-0.625,0.814-1.085,1.141s-0.993,0.58-1.599,0.762
			c-0.605,0.184-1.256,0.275-1.952,0.275c-0.847,0-1.526-0.16-2.041-0.475c-0.514-0.316-0.771-0.736-0.771-1.262
			c0-0.461,0.206-0.875,0.618-1.245s0.975-0.664,1.688-0.884c0.712-0.22,1.507-0.33,2.386-0.33c0.771,0,1.574,0.084,2.41,0.25
			c0.835,0.166,1.649,0.398,2.442,0.698s1.51,0.646,2.153,1.036c0.642,0.391,1.157,0.807,1.542,1.246l-0.112,0.111
			c-0.386-0.428-0.895-0.834-1.526-1.221c-0.632-0.385-1.337-0.725-2.113-1.02s-1.577-0.525-2.401-0.691
			c-0.825-0.166-1.623-0.249-2.395-0.249c-0.847,0-1.612,0.102-2.298,0.305c-0.686,0.205-1.229,0.48-1.631,0.828
			c-0.401,0.348-0.603,0.736-0.603,1.165c0,0.471,0.243,0.852,0.731,1.141c0.487,0.289,1.127,0.434,1.92,0.434
			c0.899,0,1.719-0.152,2.458-0.459c0.739-0.303,1.325-0.713,1.76-1.229c0.434-0.514,0.65-1.086,0.65-1.719
			c0-0.952-0.372-1.703-1.116-2.25c-0.745-0.546-1.754-0.818-3.029-0.818c-0.942,0-1.815,0.123-2.618,0.369
			c-0.804,0.247-1.506,0.595-2.105,1.045s-1.066,0.978-1.397,1.582c-0.332,0.605-0.498,1.262-0.498,1.969
			c0,0.91,0.235,1.691,0.707,2.346c0.471,0.652,1.143,1.156,2.016,1.51s1.91,0.531,3.109,0.531c0.921,0,1.891-0.152,2.908-0.459
			c1.018-0.305,2.027-0.717,3.029-1.236c1.001-0.52,1.948-1.104,2.844-1.752c0.894-0.648,1.689-1.32,2.386-2.017
			c0.696-0.695,1.242-1.376,1.64-2.04c0.396-0.664,0.594-1.264,0.594-1.8c0-0.279-0.107-0.417-0.321-0.417
			c-0.225,0-0.524,0.126-0.9,0.377c-0.374,0.252-0.824,0.624-1.35,1.116c-0.546,0.568-1.098,1.229-1.654,1.985
			c-0.557,0.755-1.131,1.541-1.719,2.361c-0.59,0.818-1.206,1.617-1.849,2.395c-0.643,0.775-1.323,1.471-2.04,2.08
			c-0.718,0.6-1.505,1.082-2.362,1.445c-0.857,0.365-1.714,0.547-2.57,0.547c-0.568,0-1.042-0.035-1.423-0.104
			c-0.38-0.07-0.664-0.18-0.852-0.33s-0.281-0.338-0.281-0.563c0-0.203,0.1-0.367,0.298-0.49s0.447-0.184,0.747-0.184
			c0.749,0,1.468,0.125,2.153,0.377s1.36,0.572,2.024,0.963c0.664,0.393,1.328,0.807,1.992,1.246s1.345,0.854,2.041,1.246
			c0.696,0.391,1.422,0.711,2.177,0.963s1.556,0.379,2.401,0.379c0.89,0,1.58-0.143,2.073-0.426
			c0.492-0.285,0.739-0.678,0.739-1.182c0-0.268-0.102-0.553-0.305-0.852l0.144-0.08c0.236,0.375,0.354,0.717,0.354,1.027
			c0,0.6-0.298,1.08-0.893,1.439c-0.594,0.357-1.4,0.537-2.418,0.537c-0.503,0-0.99-0.051-1.462-0.152s-0.973-0.275-1.502-0.523
			c-0.53-0.246-1.133-0.584-1.808-1.012s-1.474-0.975-2.395-1.639c-0.953-0.697-1.896-1.232-2.828-1.605
			c-0.932-0.375-1.757-0.559-2.475-0.547c-0.268,0-0.484,0.043-0.65,0.129s-0.249,0.203-0.249,0.352
			c0,0.184,0.118,0.334,0.354,0.451S8.06,24.502,8.456,24.502z"/>
		<linearGradient id="SVGID_12_" gradientUnits="userSpaceOnUse" x1="18.9639" y1="21.498" x2="26.4678" y2="21.498">
			<stop  offset="0" style="stop-color:#FEE35F"/>
			<stop  offset="0" style="stop-color:#DDA027"/>
			<stop  offset="0.3198" style="stop-color:#CE9A2B"/>
			<stop  offset="0.6802" style="stop-color:#FEF48E"/>
			<stop  offset="1" style="stop-color:#FFD046"/>
		</linearGradient>
		<path fill="url(#SVGID_12_)" d="M19.494,24.086c-0.354,0-0.53-0.275-0.53-0.82c0-0.363,0.107-0.75,0.321-1.156
			c0.215-0.406,0.504-0.801,0.868-1.182c0.363-0.381,0.771-0.725,1.221-1.037c0.449-0.311,0.913-0.555,1.39-0.738
			c0.477-0.182,0.929-0.273,1.358-0.273c0.363,0,0.546,0.141,0.546,0.418c0,0.258-0.166,0.586-0.498,0.988s-0.75,0.865-1.254,1.391
			c-0.396,0.406-0.813,0.795-1.253,1.164s-0.849,0.67-1.229,0.898C20.054,23.971,19.74,24.086,19.494,24.086z M19.51,23.973
			c0.204,0,0.479-0.102,0.828-0.305c0.348-0.205,0.739-0.484,1.173-0.844s0.876-0.77,1.325-1.23c0.504-0.523,0.91-0.977,1.222-1.357
			c0.311-0.379,0.466-0.688,0.466-0.924c0-0.182-0.118-0.273-0.354-0.273c-0.214,0-0.485,0.086-0.812,0.258
			c-0.327,0.172-0.675,0.398-1.044,0.684c-0.37,0.283-0.737,0.596-1.102,0.939s-0.696,0.691-0.996,1.043
			c-0.3,0.355-0.541,0.684-0.723,0.988c-0.183,0.307-0.273,0.561-0.273,0.764C19.221,23.887,19.317,23.973,19.51,23.973z
			 M26.033,21.258l-0.144,0.16c-0.44,0.504-0.888,0.961-1.342,1.373c-0.456,0.412-0.874,0.736-1.254,0.973
			c-0.38,0.234-0.683,0.354-0.907,0.354c-0.118,0-0.223-0.047-0.313-0.137c-0.092-0.09-0.137-0.205-0.137-0.346
			c0-0.363,0.198-0.852,0.594-1.461c0.396-0.611,0.948-1.281,1.655-2.01h0.081l0.964-1.061h1.237
			c-0.193,0.107-0.392,0.24-0.595,0.402c-0.203,0.16-0.396,0.332-0.579,0.514c-0.792,0.793-1.416,1.428-1.871,1.904
			c-0.456,0.477-0.78,0.85-0.973,1.117s-0.289,0.486-0.289,0.658c0,0.215,0.086,0.322,0.258,0.322c0.192,0,0.46-0.111,0.803-0.33
			c0.343-0.221,0.73-0.521,1.165-0.908c0.434-0.385,0.87-0.824,1.31-1.316l0.177-0.209H26.033z"/>
		<linearGradient id="SVGID_13_" gradientUnits="userSpaceOnUse" x1="24.876" y1="21.4824" x2="36.0107" y2="21.4824">
			<stop  offset="0" style="stop-color:#FEE35F"/>
			<stop  offset="0" style="stop-color:#DDA027"/>
			<stop  offset="0.3198" style="stop-color:#CE9A2B"/>
			<stop  offset="0.6802" style="stop-color:#FEF48E"/>
			<stop  offset="1" style="stop-color:#FFD046"/>
		</linearGradient>
		<path fill="url(#SVGID_13_)" d="M26.033,21.258h-0.16l0.192-0.209c0.6-0.664,1.173-1.197,1.72-1.6
			c0.546-0.4,0.979-0.602,1.301-0.602c0.129,0,0.236,0.043,0.321,0.127c0.086,0.086,0.129,0.199,0.129,0.338
			c0,0.301-0.126,0.639-0.378,1.012c-0.252,0.375-0.683,0.879-1.293,1.512h0.208l-0.418,0.563l-1.413,1.574h-1.366
			c0.504-0.363,1.018-0.781,1.543-1.254c0.524-0.471,1.01-0.943,1.454-1.412c0.444-0.473,0.804-0.896,1.076-1.271
			c0.273-0.375,0.41-0.643,0.41-0.803c0-0.182-0.097-0.273-0.289-0.273c-0.172,0-0.418,0.094-0.739,0.281s-0.667,0.439-1.036,0.756
			c-0.37,0.316-0.726,0.666-1.069,1.053L26.033,21.258z M27.655,22.398h-0.176l1.27-1.35c0.6-0.654,1.151-1.168,1.655-1.543
			c0.503-0.375,0.915-0.563,1.236-0.563c0.117,0,0.22,0.039,0.306,0.121c0.085,0.08,0.128,0.189,0.128,0.328
			c0,0.301-0.112,0.633-0.337,0.998c-0.226,0.363-0.621,0.846-1.189,1.445h0.209l-0.418,0.563l-1.397,1.574h-1.237
			c0.482-0.363,0.969-0.779,1.462-1.246c0.492-0.465,0.946-0.928,1.358-1.389s0.747-0.873,1.004-1.238
			c0.258-0.363,0.386-0.625,0.386-0.787c0-0.182-0.097-0.273-0.29-0.273c-0.17,0-0.404,0.092-0.698,0.273
			c-0.295,0.184-0.616,0.424-0.964,0.723c-0.349,0.301-0.693,0.639-1.037,1.014L27.655,22.398z M32.188,24.117
			c-0.161,0-0.3-0.066-0.418-0.201c-0.118-0.133-0.177-0.297-0.177-0.49c0-0.299,0.112-0.607,0.337-0.924
			c0.226-0.316,0.501-0.629,0.828-0.939c0.326-0.311,0.653-0.611,0.979-0.9c0.327-0.289,0.603-0.551,0.828-0.787
			c0.225-0.234,0.337-0.439,0.337-0.611c0-0.16-0.102-0.24-0.306-0.24c-0.192,0-0.455,0.102-0.787,0.305
			c-0.332,0.205-0.701,0.473-1.108,0.805s-0.813,0.695-1.222,1.092c-0.406,0.396-0.787,0.787-1.141,1.174h-0.16
			c0.354-0.396,0.741-0.799,1.165-1.205c0.423-0.406,0.844-0.783,1.262-1.125c0.417-0.344,0.803-0.621,1.156-0.836
			c0.354-0.213,0.643-0.32,0.867-0.32c0.15,0,0.292,0.053,0.426,0.16s0.202,0.271,0.202,0.498c0,0.301-0.116,0.602-0.346,0.908
			c-0.23,0.305-0.513,0.607-0.844,0.908c-0.332,0.299-0.668,0.592-1.005,0.875s-0.621,0.549-0.851,0.795
			c-0.23,0.246-0.346,0.467-0.346,0.658c0,0.203,0.111,0.307,0.337,0.307c0.214,0,0.517-0.121,0.908-0.363
			c0.391-0.24,0.813-0.553,1.27-0.939c0.454-0.385,0.886-0.803,1.293-1.252l0.177-0.209h0.16l-0.145,0.16
			c-0.439,0.504-0.897,0.959-1.373,1.365c-0.478,0.408-0.919,0.732-1.326,0.973C32.76,23.998,32.434,24.117,32.188,24.117z"/>
		<linearGradient id="SVGID_14_" gradientUnits="userSpaceOnUse" x1="26.0811" y1="25.7715" x2="43.4502" y2="25.7715">
			<stop  offset="0" style="stop-color:#FEE35F"/>
			<stop  offset="0" style="stop-color:#DDA027"/>
			<stop  offset="0.3198" style="stop-color:#CE9A2B"/>
			<stop  offset="0.6802" style="stop-color:#FEF48E"/>
			<stop  offset="1" style="stop-color:#FFD046"/>
		</linearGradient>
		<path fill="url(#SVGID_14_)" d="M28.427,32.52c-0.749,0-1.327-0.139-1.735-0.416c-0.406-0.279-0.61-0.682-0.61-1.207
			c0-0.342,0.107-0.637,0.322-0.883c0.214-0.246,0.486-0.406,0.818-0.482v0.129c-0.278,0.076-0.514,0.223-0.707,0.441
			c-0.192,0.221-0.289,0.486-0.289,0.795c0,0.463,0.183,0.824,0.547,1.086s0.851,0.395,1.462,0.395c0.782,0,1.59-0.219,2.426-0.652
			s1.671-1.018,2.507-1.752c0.836-0.732,1.655-1.561,2.458-2.48c0.804-0.922,1.572-1.875,2.307-2.861
			c0.733-0.984,1.416-1.939,2.048-2.859l0.048,0.24H39.61l1.751-1.799l0.916-1.109h1.173c-0.364,0.258-0.755,0.561-1.173,0.908
			s-0.825,0.711-1.221,1.084c-0.396,0.375-0.756,0.74-1.077,1.094c-0.546,0.941-1.141,1.9-1.784,2.875
			c-0.642,0.977-1.333,1.908-2.071,2.797c-0.739,0.889-1.521,1.684-2.347,2.387c-0.824,0.701-1.684,1.254-2.579,1.662
			C30.305,32.316,29.381,32.52,28.427,32.52z M36.541,24.117c-0.354,0-0.53-0.193-0.53-0.578c0-0.344,0.105-0.67,0.313-0.98
			c0.209-0.311,0.469-0.611,0.779-0.9s0.624-0.564,0.939-0.826c0.316-0.264,0.579-0.516,0.788-0.756
			c0.208-0.24,0.313-0.48,0.313-0.715c0-0.16-0.08-0.24-0.24-0.24c-0.161,0-0.394,0.088-0.699,0.264
			c-0.305,0.178-0.635,0.41-0.988,0.699s-0.69,0.611-1.012,0.965l-0.193,0.209h-0.16l0.192-0.209
			c0.557-0.621,1.095-1.113,1.615-1.479c0.519-0.363,0.939-0.547,1.261-0.547c0.129,0,0.266,0.057,0.41,0.168
			c0.145,0.113,0.217,0.299,0.217,0.555c0,0.311-0.112,0.617-0.337,0.916c-0.226,0.301-0.501,0.588-0.828,0.859
			c-0.327,0.273-0.656,0.539-0.988,0.797c-0.332,0.256-0.61,0.5-0.835,0.73c-0.226,0.23-0.338,0.453-0.338,0.666
			c0,0.107,0.038,0.186,0.112,0.234c0.075,0.049,0.15,0.072,0.226,0.072c0.192,0,0.46-0.094,0.803-0.283
			c0.343-0.188,0.718-0.436,1.125-0.746s0.782-0.637,1.125-0.98h0.145c-0.354,0.375-0.739,0.723-1.157,1.045
			s-0.812,0.578-1.181,0.771S36.756,24.117,36.541,24.117z"/>
		<linearGradient id="SVGID_15_" gradientUnits="userSpaceOnUse" x1="41.9717" y1="21.498" x2="49.4756" y2="21.498">
			<stop  offset="0" style="stop-color:#FEE35F"/>
			<stop  offset="0" style="stop-color:#DDA027"/>
			<stop  offset="0.3198" style="stop-color:#CE9A2B"/>
			<stop  offset="0.6802" style="stop-color:#FEF48E"/>
			<stop  offset="1" style="stop-color:#FFD046"/>
		</linearGradient>
		<path fill="url(#SVGID_15_)" d="M42.502,24.086c-0.354,0-0.53-0.275-0.53-0.82c0-0.363,0.107-0.75,0.322-1.156
			c0.214-0.406,0.503-0.801,0.867-1.182s0.771-0.725,1.221-1.037c0.45-0.311,0.913-0.555,1.39-0.738
			c0.478-0.182,0.93-0.273,1.358-0.273c0.364,0,0.546,0.141,0.546,0.418c0,0.258-0.166,0.586-0.498,0.988s-0.75,0.865-1.253,1.391
			c-0.396,0.406-0.814,0.795-1.253,1.164c-0.44,0.369-0.85,0.67-1.229,0.898C43.062,23.971,42.749,24.086,42.502,24.086z
			 M42.519,23.973c0.203,0,0.479-0.102,0.827-0.305c0.348-0.205,0.739-0.484,1.174-0.844c0.434-0.359,0.875-0.77,1.325-1.23
			c0.503-0.523,0.91-0.977,1.221-1.357c0.311-0.379,0.466-0.688,0.466-0.924c0-0.182-0.118-0.273-0.354-0.273
			c-0.214,0-0.485,0.086-0.812,0.258c-0.327,0.172-0.675,0.398-1.044,0.684c-0.369,0.283-0.737,0.596-1.101,0.939
			c-0.364,0.344-0.696,0.691-0.996,1.043c-0.3,0.355-0.541,0.684-0.724,0.988c-0.182,0.307-0.273,0.561-0.273,0.764
			C42.229,23.887,42.325,23.973,42.519,23.973z M49.042,21.258l-0.145,0.16c-0.439,0.504-0.887,0.961-1.342,1.373
			s-0.873,0.736-1.253,0.973c-0.381,0.234-0.684,0.354-0.908,0.354c-0.118,0-0.223-0.047-0.313-0.137
			c-0.092-0.09-0.137-0.205-0.137-0.346c0-0.363,0.198-0.852,0.595-1.461c0.396-0.611,0.947-1.281,1.655-2.01h0.08l0.964-1.061
			h1.237c-0.193,0.107-0.392,0.24-0.595,0.402c-0.203,0.16-0.396,0.332-0.578,0.514c-0.793,0.793-1.416,1.428-1.872,1.904
			s-0.779,0.85-0.972,1.117c-0.193,0.268-0.289,0.486-0.289,0.658c0,0.215,0.085,0.322,0.257,0.322c0.192,0,0.46-0.111,0.803-0.33
			c0.343-0.221,0.731-0.521,1.165-0.908c0.434-0.385,0.87-0.824,1.31-1.316l0.177-0.209H49.042z"/>
		<linearGradient id="SVGID_16_" gradientUnits="userSpaceOnUse" x1="47.5801" y1="20.5176" x2="53.3477" y2="20.5176">
			<stop  offset="0" style="stop-color:#FEE35F"/>
			<stop  offset="0" style="stop-color:#DDA027"/>
			<stop  offset="0.3198" style="stop-color:#CE9A2B"/>
			<stop  offset="0.6802" style="stop-color:#FEF48E"/>
			<stop  offset="1" style="stop-color:#FFD046"/>
		</linearGradient>
		<path fill="url(#SVGID_16_)" d="M53.011,21.418c-0.59,0.654-1.2,1.16-1.832,1.518c-0.632,0.359-1.253,0.539-1.864,0.539
			c-0.46,0-0.846,0.041-1.156,0.121s-0.466,0.184-0.466,0.313c0,0.074,0.063,0.113,0.192,0.113c0.439,0,0.862-0.119,1.27-0.354
			c0.407-0.236,0.776-0.553,1.108-0.949c0.332-0.395,0.595-0.84,0.787-1.332c0.193-0.494,0.289-0.996,0.289-1.512
			c0-0.311,0.024-0.584,0.072-0.818c0.049-0.236,0.15-0.482,0.306-0.74s0.399-0.557,0.731-0.9l0.884-0.497
			c-0.386,0.29-0.684,0.527-0.892,0.714c-0.21,0.188-0.357,0.355-0.442,0.5c-0.086,0.145-0.129,0.303-0.129,0.473
			c0,0.172,0.032,0.416,0.097,0.73c0.064,0.316,0.097,0.637,0.097,0.957c0,0.471-0.121,0.936-0.361,1.391
			c-0.241,0.455-0.563,0.863-0.964,1.229c-0.402,0.363-0.847,0.656-1.334,0.875c-0.487,0.221-0.982,0.33-1.486,0.33
			c-0.225,0-0.337-0.07-0.337-0.209c0-0.15,0.166-0.277,0.498-0.385s0.738-0.162,1.221-0.162c1.188,0,2.356-0.631,3.502-1.895
			l0.193-0.209h0.16L53.011,21.418z M49.042,21.258h-0.161l0.193-0.209c0.985-1.082,1.78-1.973,2.386-2.668
			c0.604-0.695,1.005-1.184,1.196-1.462h0.691c-0.429,0.321-0.959,0.802-1.591,1.438s-1.468,1.529-2.507,2.674L49.042,21.258z"/>
	</g>
	<g>
		<path fill="#010101" d="M38.04,28.063v-1.568h1.075v0.266h-0.758v0.371h0.653v0.266h-0.653v0.666H38.04z"/>
		<path fill="#010101" d="M41.064,28.063H40.72l-0.137-0.355h-0.628l-0.129,0.355H39.49l0.61-1.568h0.336L41.064,28.063z
			 M40.481,27.443l-0.217-0.584l-0.212,0.584H40.481z"/>
		<path fill="#010101" d="M41.546,27.553l0.309-0.029c0.018,0.102,0.056,0.18,0.112,0.227c0.057,0.049,0.134,0.074,0.229,0.074
			c0.102,0,0.179-0.023,0.231-0.064c0.052-0.045,0.077-0.096,0.077-0.152c0-0.037-0.011-0.068-0.033-0.096
			c-0.021-0.025-0.06-0.049-0.113-0.068c-0.037-0.012-0.121-0.035-0.254-0.066c-0.17-0.043-0.289-0.096-0.357-0.156
			c-0.097-0.086-0.145-0.191-0.145-0.314c0-0.08,0.022-0.156,0.068-0.225c0.045-0.07,0.11-0.123,0.195-0.16
			c0.086-0.035,0.188-0.053,0.31-0.053c0.196,0,0.345,0.043,0.443,0.129c0.101,0.086,0.152,0.201,0.157,0.346l-0.316,0.014
			c-0.014-0.082-0.043-0.139-0.087-0.174c-0.045-0.035-0.111-0.053-0.201-0.053c-0.092,0-0.164,0.018-0.216,0.057
			c-0.034,0.023-0.051,0.057-0.051,0.098c0,0.037,0.016,0.068,0.048,0.094c0.04,0.035,0.137,0.068,0.291,0.105
			c0.154,0.035,0.268,0.074,0.342,0.113c0.073,0.039,0.131,0.092,0.173,0.158c0.042,0.068,0.063,0.152,0.063,0.25
			c0,0.09-0.025,0.174-0.074,0.252c-0.051,0.08-0.121,0.137-0.213,0.176c-0.091,0.039-0.204,0.059-0.341,0.059
			c-0.198,0-0.351-0.047-0.457-0.139S41.567,27.729,41.546,27.553z"/>
		<path fill="#010101" d="M43.483,28.063v-1.568H43.8v0.617h0.621v-0.617h0.316v1.568h-0.316v-0.686H43.8v0.686H43.483z"/>
		<path fill="#010101" d="M45.449,28.063v-1.568h0.316v1.568H45.449z"/>
		<path fill="#010101" d="M46.397,27.289c0-0.16,0.024-0.295,0.071-0.404c0.037-0.078,0.085-0.15,0.146-0.213
			c0.062-0.064,0.129-0.111,0.203-0.143c0.097-0.041,0.21-0.061,0.338-0.061c0.231,0,0.416,0.07,0.555,0.213
			c0.139,0.145,0.208,0.344,0.208,0.6c0,0.252-0.068,0.451-0.206,0.594c-0.138,0.145-0.322,0.215-0.552,0.215
			c-0.234,0-0.42-0.07-0.557-0.213C46.467,27.734,46.397,27.539,46.397,27.289z M46.725,27.277c0,0.178,0.04,0.313,0.122,0.404
			s0.187,0.137,0.313,0.137c0.127,0,0.229-0.045,0.312-0.137c0.081-0.09,0.121-0.227,0.121-0.408c0-0.18-0.04-0.314-0.118-0.402
			c-0.079-0.088-0.184-0.133-0.314-0.133s-0.235,0.045-0.315,0.135C46.765,26.963,46.725,27.098,46.725,27.277z"/>
		<path fill="#010101" d="M48.564,28.063v-1.568h0.308l0.642,1.047v-1.047h0.295v1.568H49.49l-0.632-1.023v1.023H48.564z"/>
		<path fill="#010101" d="M50.457,27.553l0.309-0.029c0.018,0.102,0.056,0.18,0.112,0.227c0.057,0.049,0.134,0.074,0.229,0.074
			c0.102,0,0.179-0.023,0.23-0.064c0.053-0.045,0.077-0.096,0.077-0.152c0-0.037-0.011-0.068-0.032-0.096
			c-0.021-0.025-0.06-0.049-0.114-0.068c-0.036-0.012-0.121-0.035-0.253-0.066c-0.17-0.043-0.289-0.096-0.357-0.156
			c-0.096-0.086-0.145-0.191-0.145-0.314c0-0.08,0.022-0.156,0.068-0.225c0.045-0.07,0.11-0.123,0.195-0.16
			c0.086-0.035,0.188-0.053,0.309-0.053c0.197,0,0.345,0.043,0.444,0.129s0.151,0.201,0.157,0.346l-0.317,0.014
			c-0.013-0.082-0.042-0.139-0.087-0.174c-0.044-0.035-0.111-0.053-0.2-0.053c-0.092,0-0.164,0.018-0.216,0.057
			c-0.034,0.023-0.051,0.057-0.051,0.098c0,0.037,0.016,0.068,0.047,0.094c0.04,0.035,0.138,0.068,0.292,0.105
			c0.153,0.035,0.268,0.074,0.341,0.113c0.074,0.039,0.132,0.092,0.174,0.158c0.041,0.068,0.063,0.152,0.063,0.25
			c0,0.09-0.025,0.174-0.074,0.252c-0.051,0.08-0.122,0.137-0.213,0.176c-0.092,0.039-0.205,0.059-0.341,0.059
			c-0.198,0-0.351-0.047-0.457-0.139S50.479,27.729,50.457,27.553z"/>
	</g>
</g>
</svg>
