<?xml version="1.0" encoding="utf-8"?>
<!-- Generator: Adobe Illustrator 16.0.0, SVG Export Plug-In . SVG Version: 6.00 Build 0)  -->
<!DOCTYPE svg PUBLIC "-//W3C//DTD SVG 1.1//EN" "http://www.w3.org/Graphics/SVG/1.1/DTD/svg11.dtd">
<svg version="1.1" id="Layer_1" xmlns="http://www.w3.org/2000/svg" xmlns:xlink="http://www.w3.org/1999/xlink" x="0px" y="0px"
	 width="230px" height="100px" viewBox="0 0 230 100" enable-background="new 0 0 230 100" xml:space="preserve">
<g>
	<g>
		<path fill="#C6A16E" d="M85.218,8.896c0.677-0.734,2.145,0.395,2.145,0.395c-0.96-1.806-1.976-2.483-1.976-2.483
			c-6.546,8.015-2.145,14.279-2.145,14.279C81.098,13.524,85.218,8.896,85.218,8.896z"/>
		<path fill="#C6A16E" d="M89.168,29.326c0,0-2.37,0.903-3.33-1.298c0,0-0.734,2.145,1.524,2.878c0,0,2.258-0.226,2.427,1.524
			c0,0,0.452,2.709,1.637,3.273c0,0,1.411-1.186-0.508-3.499C90.918,32.205,89.112,30.851,89.168,29.326z"/>
		<path fill="#C6A16E" d="M104.351,26.956c0,0-4.115-3.487-9.99-1.637c0,0,10.357-9.198-1.961-20.034c0,0,6.25,12.754-1.086,21.559
			c0,0,6.321-2.201,9.312,0.396c0,0,3.668,3.273,6.095,3.611c0,0-9.876,3.782-13.093,0.678c0,0-2.54-2.258-3.5-3.895
			c0,0-2.371-0.253-3.735-2.037c-2.098-3.166,0.97-8.348,0.97-8.348c3.056-4.897,3.698-8.516,3.805-10.271
			c0.001-0.129-0.001-0.284-0.008-0.442c0-0.052-0.001-0.104-0.002-0.154c0-0.035,0-0.053,0-0.053l0,0
			c-0.023-0.95-0.206-1.923-0.664-2.8c-0.69-1.407-1.668-2.025-1.668-2.025c0.034,0.059,0.066,0.119,0.097,0.18l-0.097-0.18
			c1.293,3.556-2.027,9.904-2.027,9.904c-1.907,3.328-2.566,6.448-2.788,8.438c-0.1,0.698-0.146,1.445-0.098,2.197
			c0,0.003,0.001,0.004,0.001,0.004l0,0c0.11,1.686,0.702,3.399,2.264,4.684c0,0,1.523,1.241,3.612,1.637
			c0,0,0.959,5.53,6.716,5.982c0,0,6.095,0.395,15.294-3.16C111.8,31.189,109.092,30.907,104.351,26.956z"/>
	</g>
	<g>
		<path fill="#C6A16E" d="M92.82,63.443h0.49l-2.109,2.354c-1.766,1.961-3.761,3.734-5.984,5.321
			c-2.225,1.586-4.611,2.942-7.162,4.069c-2.55,1.131-5.175,1.996-7.873,2.601c-2.698,0.606-5.404,0.909-8.118,0.909
			c-3.728,0-7.146-0.572-10.251-1.719c-3.106-1.145-5.813-2.754-8.118-4.83c-2.305-2.076-4.088-4.529-5.347-7.358
			c-1.258-2.827-1.888-5.927-1.888-9.294c0-3.857,0.769-7.439,2.305-10.743c1.538-3.302,3.695-6.18,6.475-8.633
			c2.779-2.453,6.034-4.365,9.761-5.739c3.728-1.373,7.766-2.06,12.115-2.06c2.289,0,4.537,0.205,6.744,0.613
			c2.208,0.41,4.259,0.974,6.156,1.693c1.896,0.719,3.54,1.562,4.93,2.526c1.389,0.964,2.395,2.003,3.016,3.113l-0.441,0.246
			c-0.589-1.08-1.562-2.085-2.918-3.017c-1.357-0.932-2.968-1.749-4.832-2.453c-1.863-0.703-3.875-1.25-6.033-1.643
			c-2.158-0.393-4.365-0.589-6.622-0.589c-4.284,0-8.258,0.671-11.919,2.011c-3.663,1.341-6.859,3.222-9.59,5.641
			c-2.73,2.421-4.855,5.249-6.376,8.486c-1.52,3.236-2.281,6.754-2.281,10.546c0,3.27,0.622,6.295,1.863,9.074
			c1.243,2.779,2.993,5.184,5.249,7.209c2.256,2.027,4.913,3.606,7.971,4.734c3.057,1.127,6.401,1.691,10.031,1.691
			c2.648,0,5.314-0.294,7.996-0.883c2.681-0.59,5.28-1.432,7.798-2.525c2.518-1.098,4.881-2.413,7.088-3.949
			c2.207-1.535,4.161-3.254,5.861-5.148L92.82,63.443z M57.994,73.352c1.472,0,3.14-0.277,5.003-0.834
			c1.864-0.558,3.785-1.391,5.764-2.502c1.978-1.109,3.833-2.484,5.567-4.119c1.406-1.209,2.935-2.658,4.586-4.342
			s3.36-3.475,5.126-5.371s3.507-3.785,5.224-5.666c1.716-1.877,3.335-3.628,4.855-5.248c1.521-1.62,2.853-2.982,3.998-4.096
			c1.536-1.504,2.935-2.656,4.193-3.458c1.259-0.801,2.297-1.201,3.115-1.201c0.981,0,1.472,0.588,1.472,1.765
			c0,1.44-0.458,3.026-1.373,4.758c-0.917,1.734-2.191,3.524-3.827,5.372c-1.635,1.848-3.531,3.671-5.689,5.47
			c-2.158,1.798-4.497,3.499-7.014,5.101c-2.519,1.603-5.118,3.018-7.799,4.242c-2.682,1.229-5.354,2.19-8.02,2.896
			c-2.666,0.702-5.224,1.054-7.676,1.054c-4.12,0-7.538-0.619-10.251-1.863c-2.715-1.242-4.733-2.918-6.058-5.027
			c-1.324-2.108-1.986-4.438-1.986-6.989c0-2.224,0.515-4.292,1.545-6.205c1.03-1.913,2.484-3.572,4.365-4.978
			c1.88-1.406,4.079-2.501,6.597-3.286c2.518-0.786,5.249-1.177,8.191-1.177c3.171,0,5.722,0.482,7.652,1.447
			c1.929,0.965,3.327,2.199,4.194,3.704c0.866,1.504,1.299,3.074,1.299,4.708c0,1.505-0.4,2.919-1.201,4.245
			c-0.802,1.322-1.905,2.484-3.311,3.48c-1.406,0.998-3.034,1.774-4.88,2.33c-1.848,0.558-3.834,0.834-5.96,0.834
			c-2.583,0-4.659-0.48-6.229-1.445c-1.57-0.965-2.354-2.249-2.354-3.852c0-1.406,0.629-2.674,1.888-3.802s2.976-2.027,5.151-2.698
			c2.174-0.67,4.602-1.005,7.284-1.005c2.354,0,4.807,0.253,7.357,0.761c2.551,0.506,5.035,1.217,7.456,2.133
			c2.42,0.916,4.611,1.971,6.573,3.164c1.961,1.193,3.531,2.461,4.708,3.803l-0.343,0.343c-1.177-1.31-2.731-2.551-4.66-3.728
			c-1.929-1.178-4.079-2.215-6.45-3.115c-2.372-0.899-4.815-1.602-7.333-2.109c-2.518-0.507-4.954-0.761-7.308-0.761
			c-2.583,0-4.922,0.312-7.014,0.932c-2.093,0.622-3.752,1.465-4.979,2.526c-1.227,1.063-1.839,2.249-1.839,3.557
			c0,1.44,0.743,2.6,2.231,3.482s3.441,1.324,5.861,1.324c2.748,0,5.249-0.467,7.505-1.398c2.257-0.932,4.047-2.184,5.371-3.752
			c1.324-1.568,1.986-3.318,1.986-5.25c0-2.91-1.136-5.199-3.409-6.866c-2.273-1.668-5.355-2.501-9.246-2.501
			c-2.878,0-5.542,0.376-7.995,1.128c-2.453,0.752-4.595,1.814-6.426,3.188c-1.832,1.374-3.254,2.984-4.267,4.832
			c-1.014,1.848-1.521,3.852-1.521,6.008c0,2.779,0.719,5.167,2.158,7.162c1.438,1.992,3.491,3.531,6.156,4.611
			c2.665,1.078,5.829,1.617,9.491,1.617c2.813,0,5.771-0.465,8.878-1.397c3.106-0.933,6.188-2.19,9.246-3.777
			c3.057-1.585,5.951-3.366,8.682-5.347c2.73-1.979,5.158-4.028,7.284-6.155c2.125-2.126,3.793-4.202,5.004-6.229
			c1.209-2.027,1.814-3.859,1.814-5.495c0-0.85-0.327-1.275-0.981-1.275c-0.687,0-1.602,0.384-2.747,1.152
			c-1.145,0.769-2.519,1.906-4.12,3.409c-1.667,1.734-3.353,3.753-5.052,6.059c-1.701,2.306-3.45,4.708-5.249,7.209
			c-1.798,2.502-3.678,4.938-5.641,7.31c-1.962,2.371-4.039,4.488-6.229,6.353c-2.191,1.831-4.595,3.302-7.21,4.414
			c-2.617,1.11-5.233,1.668-7.848,1.668c-1.734,0-3.181-0.106-4.341-0.319c-1.161-0.212-2.028-0.547-2.6-1.004
			c-0.573-0.46-0.858-1.031-0.858-1.719c0-0.619,0.302-1.118,0.908-1.495c0.604-0.375,1.365-0.563,2.281-0.563
			c2.288,0,4.479,0.385,6.573,1.151c2.092,0.771,4.152,1.75,6.18,2.943c2.027,1.192,4.054,2.46,6.082,3.803
			c2.027,1.341,4.104,2.606,6.229,3.8s4.341,2.176,6.646,2.943c2.306,0.77,4.75,1.152,7.333,1.152c2.714,0,4.823-0.434,6.327-1.299
			c1.504-0.869,2.257-2.07,2.257-3.605c0-0.816-0.312-1.686-0.933-2.6l0.442-0.246c0.719,1.145,1.079,2.19,1.079,3.14
			c0,1.831-0.908,3.294-2.723,4.392c-1.815,1.096-4.275,1.641-7.382,1.641c-1.537,0-3.024-0.153-4.463-0.465
			c-1.439-0.311-2.968-0.842-4.586-1.594c-1.619-0.753-3.458-1.781-5.518-3.091c-2.06-1.31-4.497-2.976-7.309-5.002
			c-2.911-2.127-5.788-3.761-8.633-4.905c-2.845-1.144-5.363-1.699-7.554-1.668c-0.818,0-1.48,0.131-1.986,0.393
			c-0.507,0.262-0.76,0.621-0.76,1.08c0,0.556,0.359,1.014,1.079,1.373C55.819,73.171,56.784,73.352,57.994,73.352z"/>
		<path fill="#C6A16E" d="M91.691,72.075c-1.079,0-1.619-0.835-1.619-2.503c0-1.109,0.328-2.287,0.981-3.529
			c0.654-1.242,1.537-2.445,2.648-3.605c1.112-1.16,2.354-2.215,3.728-3.164c1.373-0.948,2.787-1.699,4.243-2.256
			c1.454-0.556,2.836-0.834,4.144-0.834c1.111,0,1.667,0.426,1.667,1.275c0,0.784-0.507,1.791-1.52,3.018
			c-1.014,1.226-2.29,2.642-3.826,4.242c-1.21,1.243-2.486,2.428-3.826,3.555c-1.341,1.131-2.592,2.045-3.752,2.748
			S92.443,72.075,91.691,72.075z M91.74,71.732c0.622,0,1.463-0.312,2.526-0.933c1.063-0.62,2.257-1.479,3.581-2.575
			c1.324-1.097,2.673-2.347,4.047-3.752c1.537-1.604,2.778-2.982,3.728-4.145c0.948-1.161,1.422-2.104,1.422-2.821
			c0-0.556-0.36-0.834-1.079-0.834c-0.655,0-1.48,0.263-2.477,0.785c-0.998,0.522-2.061,1.22-3.189,2.085
			c-1.128,0.867-2.249,1.822-3.359,2.869c-1.112,1.046-2.126,2.107-3.042,3.189c-0.916,1.078-1.65,2.082-2.207,3.015
			c-0.555,0.933-0.833,1.709-0.833,2.331C90.857,71.471,91.151,71.732,91.74,71.732z M111.655,63.443l-0.441,0.488
			c-1.341,1.539-2.706,2.936-4.096,4.194c-1.391,1.259-2.666,2.249-3.826,2.968c-1.161,0.719-2.084,1.078-2.771,1.078
			c-0.361,0-0.679-0.141-0.957-0.416c-0.278-0.277-0.417-0.63-0.417-1.054c0-1.112,0.605-2.601,1.814-4.466
			c1.21-1.862,2.895-3.905,5.053-6.131h0.245l2.943-3.237h3.777c-0.589,0.327-1.194,0.735-1.814,1.228
			c-0.622,0.489-1.21,1.016-1.766,1.57c-2.421,2.42-4.325,4.355-5.714,5.813c-1.39,1.455-2.379,2.59-2.968,3.408
			c-0.588,0.817-0.882,1.488-0.882,2.012c0,0.652,0.261,0.98,0.785,0.98c0.589,0,1.406-0.335,2.453-1.006
			c1.046-0.669,2.232-1.594,3.556-2.771c1.324-1.178,2.657-2.519,3.998-4.022l0.54-0.638h0.488V63.443z"/>
		<path fill="#C6A16E" d="M111.654,63.443h-0.49l0.588-0.639c1.831-2.027,3.581-3.652,5.248-4.881
			c1.668-1.227,2.992-1.839,3.975-1.839c0.393,0,0.719,0.131,0.98,0.392c0.262,0.262,0.393,0.605,0.393,1.03
			c0,0.916-0.385,1.946-1.152,3.091c-0.77,1.145-2.086,2.682-3.948,4.61h0.637l-1.274,1.717l-4.315,4.808h-4.169
			c1.538-1.112,3.107-2.387,4.709-3.826c1.602-1.438,3.082-2.877,4.438-4.316c1.357-1.438,2.453-2.729,3.289-3.874
			c0.832-1.146,1.25-1.962,1.25-2.452c0-0.557-0.295-0.834-0.883-0.834c-0.523,0-1.275,0.286-2.258,0.857
			c-0.98,0.572-2.035,1.342-3.163,2.307s-2.216,2.034-3.262,3.211L111.654,63.443z M116.607,66.926h-0.539l3.875-4.121
			c1.832-1.994,3.516-3.563,5.052-4.707c1.538-1.146,2.796-1.718,3.776-1.718c0.359,0,0.67,0.122,0.933,0.368
			c0.262,0.245,0.394,0.581,0.394,1.006c0,0.915-0.344,1.93-1.029,3.04c-0.688,1.112-1.897,2.583-3.631,4.415h0.639l-1.275,1.717
			l-4.268,4.807h-3.776c1.472-1.111,2.959-2.379,4.464-3.801c1.504-1.424,2.885-2.836,4.145-4.244
			c1.26-1.403,2.281-2.664,3.066-3.775c0.783-1.109,1.176-1.912,1.176-2.402c0-0.557-0.293-0.835-0.883-0.835
			c-0.522,0-1.233,0.278-2.135,0.835c-0.898,0.557-1.88,1.293-2.941,2.207c-1.063,0.914-2.116,1.944-3.164,3.09L116.607,66.926z
			 M130.441,72.173c-0.491,0-0.918-0.202-1.276-0.612c-0.358-0.408-0.539-0.906-0.539-1.494c0-0.916,0.345-1.857,1.028-2.821
			c0.688-0.964,1.529-1.921,2.525-2.869c0.998-0.946,1.995-1.864,2.993-2.747s1.841-1.686,2.526-2.402
			c0.688-0.721,1.029-1.342,1.029-1.865c0-0.49-0.313-0.734-0.933-0.734c-0.588,0-1.39,0.311-2.403,0.932
			c-1.015,0.621-2.143,1.439-3.383,2.453c-1.244,1.014-2.486,2.125-3.729,3.336c-1.243,1.209-2.403,2.403-3.482,3.58h-0.49
			c1.08-1.209,2.264-2.436,3.557-3.68c1.292-1.242,2.576-2.387,3.851-3.434c1.276-1.047,2.452-1.896,3.531-2.551
			s1.963-0.98,2.649-0.98c0.457,0,0.89,0.164,1.299,0.49c0.408,0.328,0.613,0.834,0.613,1.521c0,0.916-0.353,1.84-1.056,2.771
			c-0.703,0.932-1.562,1.854-2.573,2.771c-1.016,0.915-2.037,1.807-3.068,2.672c-1.028,0.868-1.895,1.678-2.598,2.43
			s-1.055,1.422-1.055,2.012c0,0.621,0.343,0.932,1.029,0.932c0.652,0,1.578-0.367,2.771-1.104c1.193-0.736,2.485-1.694,3.875-2.871
			c1.392-1.176,2.705-2.452,3.949-3.825l0.539-0.638h0.489l-0.44,0.49c-1.341,1.537-2.739,2.928-4.192,4.17
			c-1.457,1.242-2.805,2.231-4.047,2.967C132.189,71.807,131.191,72.173,130.441,72.173z"/>
		<path fill="#C6A16E" d="M118.962,97.826c-2.288,0-4.054-0.424-5.297-1.273c-1.243-0.852-1.865-2.078-1.865-3.68
			c0-1.047,0.327-1.945,0.981-2.697c0.654-0.753,1.488-1.244,2.501-1.472v0.392c-0.85,0.229-1.569,0.68-2.158,1.35
			c-0.588,0.67-0.883,1.479-0.883,2.429c0,1.405,0.556,2.509,1.668,3.312c1.112,0.801,2.6,1.201,4.463,1.201
			c2.388,0,4.856-0.662,7.407-1.986c2.55-1.323,5.101-3.105,7.65-5.346c2.551-2.24,5.053-4.768,7.506-7.58s4.799-5.722,7.039-8.729
			c2.239-3.009,4.324-5.918,6.252-8.729l0.147,0.735H153.1l5.348-5.495l2.794-3.385h3.581c-1.112,0.785-2.305,1.71-3.581,2.771
			c-1.274,1.063-2.517,2.168-3.728,3.312c-1.209,1.146-2.305,2.257-3.287,3.335c-1.666,2.878-3.48,5.805-5.443,8.781
			c-1.963,2.975-4.07,5.82-6.327,8.535c-2.256,2.711-4.644,5.142-7.161,7.283c-2.518,2.141-5.143,3.834-7.872,5.075
			C124.693,97.206,121.873,97.826,118.962,97.826z M143.732,72.173c-1.078,0-1.619-0.587-1.619-1.767
			c0-1.045,0.318-2.041,0.957-2.989c0.638-0.948,1.43-1.864,2.377-2.748c0.949-0.883,1.906-1.724,2.871-2.524
			s1.766-1.57,2.404-2.308c0.637-0.735,0.955-1.462,0.955-2.183c0-0.489-0.244-0.736-0.736-0.736c-0.49,0-1.201,0.271-2.133,0.813
			c-0.933,0.537-1.938,1.25-3.018,2.133s-2.109,1.863-3.09,2.941l-0.59,0.639h-0.488l0.587-0.639
			c1.699-1.896,3.345-3.398,4.931-4.512c1.584-1.111,2.868-1.668,3.85-1.668c0.394,0,0.813,0.172,1.253,0.516
			s0.663,0.907,0.663,1.692c0,0.948-0.344,1.88-1.031,2.795c-0.688,0.916-1.529,1.791-2.525,2.623
			c-0.998,0.834-2.004,1.646-3.019,2.431c-1.013,0.784-1.863,1.526-2.55,2.23c-0.686,0.703-1.029,1.381-1.029,2.035
			c0,0.328,0.114,0.564,0.344,0.712c0.229,0.146,0.457,0.221,0.686,0.221c0.59,0,1.406-0.286,2.453-0.858
			c1.047-0.571,2.189-1.332,3.434-2.28c1.242-0.947,2.389-1.944,3.436-2.991h0.44c-1.08,1.145-2.257,2.206-3.533,3.188
			c-1.272,0.98-2.477,1.767-3.604,2.354C145.277,71.88,144.387,72.173,143.732,72.173z"/>
		<path fill="#C6A16E" d="M161.93,72.075c-1.078,0-1.617-0.835-1.617-2.503c0-1.109,0.328-2.287,0.979-3.529
			c0.655-1.242,1.538-2.445,2.647-3.605c1.112-1.16,2.354-2.215,3.729-3.164c1.374-0.948,2.786-1.699,4.242-2.256
			c1.456-0.556,2.836-0.834,4.146-0.834c1.111,0,1.668,0.426,1.668,1.275c0,0.784-0.509,1.791-1.521,3.018
			c-1.016,1.226-2.29,2.642-3.824,4.242c-1.213,1.243-2.486,2.428-3.826,3.555c-1.343,1.131-2.593,2.045-3.753,2.748
			C163.637,71.725,162.684,72.075,161.93,72.075z M161.979,71.732c0.621,0,1.463-0.312,2.526-0.933
			c1.062-0.62,2.255-1.479,3.579-2.575c1.324-1.097,2.674-2.347,4.046-3.752c1.538-1.604,2.78-2.982,3.729-4.145
			c0.945-1.161,1.422-2.104,1.422-2.821c0-0.556-0.359-0.834-1.079-0.834c-0.655,0-1.479,0.263-2.478,0.785s-2.061,1.22-3.188,2.085
			c-1.128,0.867-2.247,1.822-3.358,2.869c-1.113,1.046-2.125,2.107-3.041,3.189c-0.916,1.078-1.65,2.082-2.207,3.015
			s-0.836,1.709-0.836,2.331C161.096,71.471,161.391,71.732,161.979,71.732z M181.895,63.443l-0.441,0.488
			c-1.342,1.539-2.706,2.936-4.098,4.194c-1.39,1.259-2.664,2.249-3.823,2.968c-1.162,0.719-2.085,1.078-2.772,1.078
			c-0.361,0-0.679-0.141-0.955-0.416c-0.281-0.277-0.418-0.63-0.418-1.054c0-1.112,0.604-2.601,1.814-4.466
			c1.211-1.862,2.895-3.905,5.051-6.131h0.246l2.943-3.237h3.776c-0.589,0.327-1.194,0.735-1.815,1.228
			c-0.621,0.489-1.211,1.016-1.766,1.57c-2.421,2.42-4.324,4.355-5.714,5.813c-1.392,1.455-2.379,2.59-2.968,3.408
			c-0.59,0.817-0.883,1.488-0.883,2.012c0,0.652,0.262,0.98,0.783,0.98c0.59,0,1.406-0.335,2.453-1.006
			c1.047-0.669,2.232-1.594,3.558-2.771c1.321-1.178,2.655-2.519,3.997-4.022l0.539-0.638h0.492V63.443z"/>
		<path fill="#C6A16E" d="M194.009,63.934c-1.8,1.996-3.663,3.541-5.593,4.637s-3.824,1.643-5.688,1.643
			c-1.406,0-2.586,0.123-3.533,0.367c-0.949,0.246-1.422,0.564-1.422,0.956c0,0.229,0.194,0.345,0.586,0.345
			c1.343,0,2.636-0.359,3.877-1.078c1.242-0.72,2.371-1.686,3.384-2.896c1.015-1.209,1.815-2.564,2.403-4.069
			c0.588-1.504,0.884-3.042,0.884-4.61c0-0.947,0.073-1.783,0.22-2.502c0.148-0.72,0.46-1.472,0.934-2.256
			c0.474-0.785,1.219-1.701,2.23-2.746l2.697-1.521c-1.176,0.883-2.084,1.611-2.723,2.182c-0.637,0.573-1.088,1.079-1.35,1.52
			c-0.262,0.443-0.393,0.927-0.393,1.449s0.099,1.268,0.295,2.23c0.197,0.965,0.295,1.938,0.295,2.919
			c0,1.438-0.367,2.854-1.104,4.242c-0.733,1.392-1.715,2.644-2.94,3.753c-1.228,1.111-2.586,2.003-4.072,2.674
			c-1.488,0.669-3,1.004-4.536,1.004c-0.687,0-1.03-0.213-1.03-0.638c0-0.455,0.508-0.849,1.521-1.177
			c1.015-0.325,2.257-0.489,3.729-0.489c3.629,0,7.19-1.929,10.691-5.789l0.59-0.638h0.489L194.009,63.934z M181.895,63.443h-0.492
			l0.59-0.639c3.008-3.303,5.438-6.016,7.283-8.144c1.848-2.124,3.065-3.611,3.654-4.462h2.109
			c-1.309,0.983-2.928,2.446-4.857,4.389c-1.929,1.946-4.479,4.667-7.65,8.167L181.895,63.443z"/>
	</g>
	<g>
		<path fill="#010101" d="M146.634,84.893v-5.43h3.72v0.92h-2.623v1.285h2.266v0.916h-2.266v2.309H146.634z"/>
		<path fill="#010101" d="M157.098,84.893h-1.193l-0.473-1.232h-2.17l-0.447,1.232h-1.162l2.115-5.43h1.156L157.098,84.893z
			 M155.08,82.744l-0.75-2.016l-0.73,2.016H155.08z"/>
		<path fill="#010101" d="M158.766,83.126l1.065-0.104c0.063,0.358,0.194,0.621,0.39,0.789c0.196,0.17,0.463,0.25,0.795,0.25
			c0.354,0,0.617-0.072,0.797-0.224c0.18-0.147,0.27-0.321,0.27-0.521c0-0.129-0.038-0.238-0.113-0.33
			c-0.074-0.09-0.205-0.166-0.394-0.232c-0.128-0.047-0.421-0.125-0.876-0.238c-0.59-0.145-1.002-0.324-1.238-0.537
			c-0.333-0.297-0.498-0.662-0.498-1.092c0-0.275,0.077-0.533,0.234-0.775c0.154-0.239,0.381-0.422,0.678-0.549
			c0.294-0.127,0.648-0.188,1.066-0.188c0.682,0,1.195,0.149,1.539,0.448c0.345,0.297,0.524,0.697,0.543,1.193l-1.096,0.049
			c-0.048-0.277-0.148-0.479-0.304-0.601c-0.153-0.123-0.386-0.185-0.694-0.185c-0.316,0-0.566,0.066-0.748,0.197
			c-0.115,0.084-0.174,0.194-0.174,0.336c0,0.129,0.055,0.237,0.163,0.33c0.142,0.116,0.476,0.235,1.007,0.36
			c0.534,0.128,0.93,0.257,1.186,0.394c0.253,0.133,0.455,0.316,0.6,0.551c0.143,0.232,0.215,0.521,0.215,0.865
			c0,0.31-0.086,0.603-0.258,0.871c-0.175,0.271-0.417,0.476-0.732,0.606c-0.317,0.132-0.709,0.196-1.183,0.196
			c-0.687,0-1.214-0.158-1.58-0.475C159.055,84.195,158.835,83.73,158.766,83.126z"/>
		<path fill="#010101" d="M165.468,84.893v-5.43h1.097v2.139h2.146v-2.139h1.099v5.43h-1.099V82.52h-2.146v2.373H165.468z"/>
		<path fill="#010101" d="M172.271,84.893v-5.43h1.096v5.43H172.271z"/>
		<path fill="#010101" d="M175.553,82.212c0-0.554,0.084-1.017,0.246-1.392c0.125-0.277,0.292-0.524,0.506-0.745
			c0.215-0.22,0.447-0.382,0.703-0.489c0.335-0.143,0.727-0.214,1.168-0.214c0.801,0,1.44,0.249,1.92,0.744
			c0.48,0.495,0.721,1.187,0.721,2.067c0,0.879-0.237,1.563-0.715,2.058c-0.477,0.495-1.115,0.741-1.908,0.741
			c-0.81,0-1.451-0.244-1.928-0.738C175.79,83.753,175.553,83.076,175.553,82.212z M176.68,82.174c0,0.615,0.143,1.08,0.426,1.396
			c0.285,0.318,0.646,0.477,1.082,0.477c0.437,0,0.795-0.154,1.076-0.472c0.279-0.313,0.42-0.786,0.42-1.416
			c0-0.621-0.136-1.087-0.408-1.392c-0.274-0.306-0.637-0.459-1.088-0.459c-0.449,0-0.814,0.154-1.094,0.463
			C176.82,81.082,176.68,81.55,176.68,82.174z"/>
		<path fill="#010101" d="M183.045,84.893v-5.43h1.068l2.222,3.625v-3.625h1.017v5.43h-1.099l-2.188-3.539v3.539H183.045z"/>
		<path fill="#010101" d="M189.598,83.126l1.065-0.104c0.065,0.358,0.194,0.621,0.392,0.789c0.196,0.17,0.463,0.25,0.795,0.25
			c0.352,0,0.617-0.072,0.797-0.224c0.179-0.147,0.268-0.321,0.268-0.521c0-0.129-0.036-0.238-0.111-0.33
			c-0.076-0.09-0.207-0.166-0.396-0.232c-0.128-0.047-0.419-0.125-0.878-0.238c-0.586-0.145-1-0.324-1.234-0.537
			c-0.335-0.297-0.5-0.662-0.5-1.092c0-0.275,0.079-0.533,0.234-0.775c0.156-0.239,0.383-0.422,0.678-0.549
			c0.294-0.127,0.648-0.188,1.068-0.188c0.682,0,1.191,0.149,1.537,0.448c0.344,0.297,0.524,0.697,0.543,1.193l-1.097,0.049
			c-0.048-0.277-0.147-0.479-0.303-0.601c-0.153-0.123-0.386-0.185-0.692-0.185c-0.32,0-0.568,0.066-0.748,0.197
			c-0.117,0.084-0.174,0.194-0.174,0.336c0,0.129,0.055,0.237,0.163,0.33c0.138,0.116,0.474,0.235,1.007,0.36
			c0.532,0.128,0.926,0.257,1.182,0.394c0.257,0.133,0.455,0.316,0.601,0.551c0.146,0.232,0.218,0.521,0.218,0.865
			c0,0.31-0.088,0.603-0.261,0.871c-0.172,0.271-0.416,0.476-0.733,0.606c-0.313,0.132-0.707,0.196-1.182,0.196
			c-0.684,0-1.211-0.158-1.58-0.475C189.889,84.195,189.669,83.73,189.598,83.126z"/>
	</g>
</g>
</svg>
